<?xml version="1.0" encoding="UTF-8" standalone="no"?>
<!DOCTYPE svg PUBLIC "-//W3C//DTD SVG 1.1//EN"
 "http://www.w3.org/Graphics/SVG/1.1/DTD/svg11.dtd">
<!-- Generated by graphviz version 2.36.0 (20140111.2315)
 -->
<!-- Title: G Pages: 1 -->
<svg width="1038pt" height="500pt"
 viewBox="0.00 0.00 1038.00 500.00" xmlns="http://www.w3.org/2000/svg" xmlns:xlink="http://www.w3.org/1999/xlink">
<g id="graph0" class="graph" transform="scale(1 1) rotate(0) translate(4 496)">
<title>G</title>
<polygon fill="white" stroke="none" points="-4,4 -4,-496 1034,-496 1034,4 -4,4"/>
<g id="clust1" class="cluster"><title>cluster_Global</title>
<path fill="none" stroke="gray" d="M20,-8C20,-8 1010,-8 1010,-8 1016,-8 1022,-14 1022,-20 1022,-20 1022,-472 1022,-472 1022,-478 1016,-484 1010,-484 1010,-484 20,-484 20,-484 14,-484 8,-478 8,-472 8,-472 8,-20 8,-20 8,-14 14,-8 20,-8"/>
<text text-anchor="middle" x="515" y="-471.2" font-family="Times,serif" font-size="11.00" fill="gray">Global</text>
</g>
<g id="clust2" class="cluster"><title>cluster_\VoidInsight</title>
<path fill="none" stroke="gray" d="M28,-16C28,-16 1002,-16 1002,-16 1008,-16 1014,-22 1014,-28 1014,-28 1014,-444 1014,-444 1014,-450 1008,-456 1002,-456 1002,-456 28,-456 28,-456 22,-456 16,-450 16,-444 16,-444 16,-28 16,-28 16,-22 22,-16 28,-16"/>
<text text-anchor="middle" x="515" y="-443.2" font-family="Times,serif" font-size="11.00" fill="gray">VoidInsight</text>
</g>
<g id="clust3" class="cluster"><title>cluster_\VoidInsight\Taxtotum</title>
<path fill="none" stroke="gray" d="M36,-24C36,-24 994,-24 994,-24 1000,-24 1006,-30 1006,-36 1006,-36 1006,-416 1006,-416 1006,-422 1000,-428 994,-428 994,-428 36,-428 36,-428 30,-428 24,-422 24,-416 24,-416 24,-36 24,-36 24,-30 30,-24 36,-24"/>
<text text-anchor="middle" x="515" y="-415.2" font-family="Times,serif" font-size="11.00" fill="gray">Taxtotum</text>
</g>
<g id="clust4" class="cluster"><title>cluster_\VoidInsight\Taxtotum\Libs</title>
<path fill="none" stroke="gray" d="M44,-32C44,-32 986,-32 986,-32 992,-32 998,-38 998,-44 998,-44 998,-388 998,-388 998,-394 992,-400 986,-400 986,-400 44,-400 44,-400 38,-400 32,-394 32,-388 32,-388 32,-44 32,-44 32,-38 38,-32 44,-32"/>
<text text-anchor="middle" x="515" y="-387.2" font-family="Times,serif" font-size="11.00" fill="gray">Libs</text>
</g>
<g id="clust5" class="cluster"><title>cluster_\VoidInsight\Taxtotum\Libs\TaxStrategy</title>
<path fill="none" stroke="gray" d="M52,-138C52,-138 978,-138 978,-138 984,-138 990,-144 990,-150 990,-150 990,-360 990,-360 990,-366 984,-372 978,-372 978,-372 52,-372 52,-372 46,-372 40,-366 40,-360 40,-360 40,-150 40,-150 40,-144 46,-138 52,-138"/>
<text text-anchor="middle" x="515" y="-359.2" font-family="Times,serif" font-size="11.00" fill="gray">TaxStrategy</text>
</g>
<!-- \\VoidInsight\\Taxtotum\\Libs\\TaxStrategy\\RatioTaxStrategy -->
<g id="node1" class="node"><title>\\VoidInsight\\Taxtotum\\Libs\\TaxStrategy\\RatioTaxStrategy</title>
<polygon fill="none" stroke="black" points="683.5,-344 558.5,-344 558.5,-308 683.5,-308 683.5,-344"/>
<text text-anchor="middle" x="621" y="-323.2" font-family="Courier,monospace" font-size="11.00">RatioTaxStrategy</text>
</g>
<!-- \\VoidInsight\\Taxtotum\\Libs\\TaxStrategy\\AbstractTaxStrategy -->
<g id="node2" class="node"><title>\\VoidInsight\\Taxtotum\\Libs\\TaxStrategy\\AbstractTaxStrategy</title>
<polygon fill="none" stroke="black" points="445.5,-263 300.5,-263 300.5,-227 445.5,-227 445.5,-263"/>
<text text-anchor="start" x="339" y="-248.2" font-family="Courier,monospace" font-size="11.00">«abstract»</text>
<text text-anchor="start" x="308.5" y="-236.2" font-family="Courier,monospace" font-size="11.00">AbstractTaxStrategy</text>
</g>
<!-- \\VoidInsight\\Taxtotum\\Libs\\TaxStrategy\\RatioTaxStrategy&#45;&gt;\\VoidInsight\\Taxtotum\\Libs\\TaxStrategy\\AbstractTaxStrategy -->
<g id="edge1" class="edge"><title>\\VoidInsight\\Taxtotum\\Libs\\TaxStrategy\\RatioTaxStrategy&#45;&gt;\\VoidInsight\\Taxtotum\\Libs\\TaxStrategy\\AbstractTaxStrategy</title>
<path fill="none" stroke="black" d="M558.494,-310.783C545.074,-307.167 531.002,-303.147 518,-299 487.982,-289.425 455.04,-277.203 428.248,-266.809"/>
<polygon fill="none" stroke="black" points="429.261,-263.447 418.673,-263.071 426.715,-269.968 429.261,-263.447"/>
</g>
<!-- \\VoidInsight\\Taxtotum\\Libs\\TaxStrategy\\TaxStrategyInterface -->
<g id="node7" class="node"><title>\\VoidInsight\\Taxtotum\\Libs\\TaxStrategy\\TaxStrategyInterface</title>
<polygon fill="none" stroke="black" points="214,-236 62,-236 62,-200 214,-200 214,-236"/>
<text text-anchor="middle" x="138" y="-215.2" font-family="Courier,monospace" font-size="11.00">TaxStrategyInterface</text>
</g>
<!-- \\VoidInsight\\Taxtotum\\Libs\\TaxStrategy\\AbstractTaxStrategy&#45;&gt;\\VoidInsight\\Taxtotum\\Libs\\TaxStrategy\\TaxStrategyInterface -->
<g id="edge4" class="edge"><title>\\VoidInsight\\Taxtotum\\Libs\\TaxStrategy\\AbstractTaxStrategy&#45;&gt;\\VoidInsight\\Taxtotum\\Libs\\TaxStrategy\\TaxStrategyInterface</title>
<path fill="none" stroke="black" stroke-dasharray="1,5" d="M300.191,-236.679C276.217,-233.901 249.266,-230.778 224.364,-227.892"/>
<polygon fill="none" stroke="black" points="224.537,-224.389 214.201,-226.714 223.732,-231.342 224.537,-224.389"/>
</g>
<!-- \\VoidInsight\\Taxtotum\\Libs\\TaxStrategy\\TaxStrategyConfInterface -->
<g id="node8" class="node"><title>\\VoidInsight\\Taxtotum\\Libs\\TaxStrategy\\TaxStrategyConfInterface</title>
<polygon fill="none" stroke="black" points="227.5,-290 48.5,-290 48.5,-254 227.5,-254 227.5,-290"/>
<text text-anchor="middle" x="138" y="-269.2" font-family="Courier,monospace" font-size="11.00">TaxStrategyConfInterface</text>
</g>
<!-- \\VoidInsight\\Taxtotum\\Libs\\TaxStrategy\\AbstractTaxStrategy&#45;&gt;\\VoidInsight\\Taxtotum\\Libs\\TaxStrategy\\TaxStrategyConfInterface -->
<g id="edge5" class="edge"><title>\\VoidInsight\\Taxtotum\\Libs\\TaxStrategy\\AbstractTaxStrategy&#45;&gt;\\VoidInsight\\Taxtotum\\Libs\\TaxStrategy\\TaxStrategyConfInterface</title>
<path fill="none" stroke="black" stroke-dasharray="1,5" d="M300.191,-253.321C280.542,-255.598 258.893,-258.107 238.011,-260.527"/>
<polygon fill="none" stroke="black" points="237.364,-257.078 227.834,-261.706 238.17,-264.032 237.364,-257.078"/>
</g>
<!-- \\VoidInsight\\Taxtotum\\Libs\\TaxStrategy\\FixedTaxStrategy -->
<g id="node3" class="node"><title>\\VoidInsight\\Taxtotum\\Libs\\TaxStrategy\\FixedTaxStrategy</title>
<polygon fill="none" stroke="black" points="683.5,-290 558.5,-290 558.5,-254 683.5,-254 683.5,-290"/>
<text text-anchor="middle" x="621" y="-269.2" font-family="Courier,monospace" font-size="11.00">FixedTaxStrategy</text>
</g>
<!-- \\VoidInsight\\Taxtotum\\Libs\\TaxStrategy\\FixedTaxStrategy&#45;&gt;\\VoidInsight\\Taxtotum\\Libs\\TaxStrategy\\AbstractTaxStrategy -->
<g id="edge6" class="edge"><title>\\VoidInsight\\Taxtotum\\Libs\\TaxStrategy\\FixedTaxStrategy&#45;&gt;\\VoidInsight\\Taxtotum\\Libs\\TaxStrategy\\AbstractTaxStrategy</title>
<path fill="none" stroke="black" d="M558.241,-265.222C527.286,-261.824 489.382,-257.664 456.02,-254.002"/>
<polygon fill="none" stroke="black" points="456.147,-250.495 445.825,-252.883 455.383,-257.453 456.147,-250.495"/>
</g>
<!-- \\VoidInsight\\Taxtotum\\Libs\\TaxStrategy\\DummyTaxStrategy -->
<g id="node4" class="node"><title>\\VoidInsight\\Taxtotum\\Libs\\TaxStrategy\\DummyTaxStrategy</title>
<polygon fill="none" stroke="black" points="683.5,-236 558.5,-236 558.5,-200 683.5,-200 683.5,-236"/>
<text text-anchor="middle" x="621" y="-215.2" font-family="Courier,monospace" font-size="11.00">DummyTaxStrategy</text>
</g>
<!-- \\VoidInsight\\Taxtotum\\Libs\\TaxStrategy\\DummyTaxStrategy&#45;&gt;\\VoidInsight\\Taxtotum\\Libs\\TaxStrategy\\AbstractTaxStrategy -->
<g id="edge8" class="edge"><title>\\VoidInsight\\Taxtotum\\Libs\\TaxStrategy\\DummyTaxStrategy&#45;&gt;\\VoidInsight\\Taxtotum\\Libs\\TaxStrategy\\AbstractTaxStrategy</title>
<path fill="none" stroke="black" d="M558.241,-224.778C527.286,-228.176 489.382,-232.336 456.02,-235.998"/>
<polygon fill="none" stroke="black" points="455.383,-232.547 445.825,-237.117 456.147,-239.505 455.383,-232.547"/>
</g>
<!-- \\VoidInsight\\Taxtotum\\Libs\\TaxStrategy\\AbstractDecoratorTaxStrategy -->
<g id="node5" class="node"><title>\\VoidInsight\\Taxtotum\\Libs\\TaxStrategy\\AbstractDecoratorTaxStrategy</title>
<polygon fill="none" stroke="black" points="724,-182 518,-182 518,-146 724,-146 724,-182"/>
<text text-anchor="start" x="587" y="-167.2" font-family="Courier,monospace" font-size="11.00">«abstract»</text>
<text text-anchor="start" x="526" y="-155.2" font-family="Courier,monospace" font-size="11.00">AbstractDecoratorTaxStrategy</text>
</g>
<!-- \\VoidInsight\\Taxtotum\\Libs\\TaxStrategy\\AbstractDecoratorTaxStrategy&#45;&gt;\\VoidInsight\\Taxtotum\\Libs\\TaxStrategy\\AbstractTaxStrategy -->
<g id="edge9" class="edge"><title>\\VoidInsight\\Taxtotum\\Libs\\TaxStrategy\\AbstractDecoratorTaxStrategy&#45;&gt;\\VoidInsight\\Taxtotum\\Libs\\TaxStrategy\\AbstractTaxStrategy</title>
<path fill="none" stroke="black" d="M546.307,-182.005C536.712,-184.787 527.071,-187.806 518,-191 484.969,-202.628 478.806,-210.75 446,-223 445.556,-223.166 445.11,-223.331 444.663,-223.496"/>
<polygon fill="none" stroke="black" points="443.311,-220.262 435.061,-226.911 445.656,-226.858 443.311,-220.262"/>
</g>
<!-- \\VoidInsight\\Taxtotum\\Libs\\TaxStrategy\\LimitDecoratorTaxStrategy -->
<g id="node6" class="node"><title>\\VoidInsight\\Taxtotum\\Libs\\TaxStrategy\\LimitDecoratorTaxStrategy</title>
<polygon fill="none" stroke="black" points="981.5,-182 796.5,-182 796.5,-146 981.5,-146 981.5,-182"/>
<text text-anchor="middle" x="889" y="-161.2" font-family="Courier,monospace" font-size="11.00">LimitDecoratorTaxStrategy</text>
</g>
<!-- \\VoidInsight\\Taxtotum\\Libs\\TaxStrategy\\LimitDecoratorTaxStrategy&#45;&gt;\\VoidInsight\\Taxtotum\\Libs\\TaxStrategy\\AbstractDecoratorTaxStrategy -->
<g id="edge10" class="edge"><title>\\VoidInsight\\Taxtotum\\Libs\\TaxStrategy\\LimitDecoratorTaxStrategy&#45;&gt;\\VoidInsight\\Taxtotum\\Libs\\TaxStrategy\\AbstractDecoratorTaxStrategy</title>
<path fill="none" stroke="black" d="M796.458,-164C776.44,-164 755.03,-164 734.307,-164"/>
<polygon fill="none" stroke="black" points="734.198,-160.5 724.198,-164 734.198,-167.5 734.198,-160.5"/>
</g>
<!-- \\VoidInsight\\Taxtotum\\Libs\\AbstractTax -->
<g id="node9" class="node"><title>\\VoidInsight\\Taxtotum\\Libs\\AbstractTax</title>
<polygon fill="none" stroke="black" points="666.5,-102 575.5,-102 575.5,-66 666.5,-66 666.5,-102"/>
<text text-anchor="start" x="587" y="-87.2" font-family="Courier,monospace" font-size="11.00">«abstract»</text>
<text text-anchor="start" x="583.5" y="-75.2" font-family="Courier,monospace" font-size="11.00">AbstractTax</text>
</g>
<!-- \\VoidInsight\\Taxtotum\\Libs\\TaxInterface -->
<g id="node11" class="node"><title>\\VoidInsight\\Taxtotum\\Libs\\TaxInterface</title>
<polygon fill="none" stroke="black" points="422,-76 324,-76 324,-40 422,-40 422,-76"/>
<text text-anchor="middle" x="373" y="-55.2" font-family="Courier,monospace" font-size="11.00">TaxInterface</text>
</g>
<!-- \\VoidInsight\\Taxtotum\\Libs\\AbstractTax&#45;&gt;\\VoidInsight\\Taxtotum\\Libs\\TaxInterface -->
<g id="edge2" class="edge"><title>\\VoidInsight\\Taxtotum\\Libs\\AbstractTax&#45;&gt;\\VoidInsight\\Taxtotum\\Libs\\TaxInterface</title>
<path fill="none" stroke="black" stroke-dasharray="1,5" d="M575.451,-79.2916C535.246,-75.0422 475.847,-68.7643 431.958,-64.1256"/>
<polygon fill="none" stroke="black" points="432.313,-60.6437 422,-63.0732 431.577,-67.605 432.313,-60.6437"/>
</g>
<!-- \\VoidInsight\\Taxtotum\\Libs\\TaxConfInterface -->
<g id="node12" class="node"><title>\\VoidInsight\\Taxtotum\\Libs\\TaxConfInterface</title>
<polygon fill="none" stroke="black" points="435.5,-130 310.5,-130 310.5,-94 435.5,-94 435.5,-130"/>
<text text-anchor="middle" x="373" y="-109.2" font-family="Courier,monospace" font-size="11.00">TaxConfInterface</text>
</g>
<!-- \\VoidInsight\\Taxtotum\\Libs\\AbstractTax&#45;&gt;\\VoidInsight\\Taxtotum\\Libs\\TaxConfInterface -->
<g id="edge3" class="edge"><title>\\VoidInsight\\Taxtotum\\Libs\\AbstractTax&#45;&gt;\\VoidInsight\\Taxtotum\\Libs\\TaxConfInterface</title>
<path fill="none" stroke="black" stroke-dasharray="1,5" d="M575.451,-89.0706C539.38,-93.1762 487.86,-99.0403 445.952,-103.81"/>
<polygon fill="none" stroke="black" points="445.336,-100.358 435.796,-104.966 446.128,-107.313 445.336,-100.358"/>
</g>
<!-- \\VoidInsight\\Taxtotum\\Libs\\Tax -->
<g id="node10" class="node"><title>\\VoidInsight\\Taxtotum\\Libs\\Tax</title>
<polygon fill="none" stroke="black" points="916,-102 862,-102 862,-66 916,-66 916,-102"/>
<text text-anchor="middle" x="889" y="-81.2" font-family="Courier,monospace" font-size="11.00">Tax</text>
</g>
<!-- \\VoidInsight\\Taxtotum\\Libs\\Tax&#45;&gt;\\VoidInsight\\Taxtotum\\Libs\\AbstractTax -->
<g id="edge7" class="edge"><title>\\VoidInsight\\Taxtotum\\Libs\\Tax&#45;&gt;\\VoidInsight\\Taxtotum\\Libs\\AbstractTax</title>
<path fill="none" stroke="black" d="M861.522,-84C818.719,-84 733.435,-84 677.046,-84"/>
<polygon fill="none" stroke="black" points="676.869,-80.5001 666.869,-84 676.869,-87.5001 676.869,-80.5001"/>
</g>
</g>
</svg>
