<?xml version="1.0" encoding="UTF-8" standalone="no"?>
<!DOCTYPE svg PUBLIC "-//W3C//DTD SVG 1.1//EN"
 "http://www.w3.org/Graphics/SVG/1.1/DTD/svg11.dtd">
<!-- Generated by graphviz version 2.36.0 (20140111.2315)
 -->
<!-- Title: G Pages: 1 -->
<svg width="700pt" height="420pt"
 viewBox="0.00 0.00 700.00 420.00" xmlns="http://www.w3.org/2000/svg" xmlns:xlink="http://www.w3.org/1999/xlink">
<g id="graph0" class="graph" transform="scale(1 1) rotate(0) translate(4 416)">
<title>G</title>
<polygon fill="white" stroke="none" points="-4,4 -4,-416 696,-416 696,4 -4,4"/>
<g id="clust1" class="cluster"><title>cluster_Global</title>
<path fill="none" stroke="gray" d="M20,-8C20,-8 672,-8 672,-8 678,-8 684,-14 684,-20 684,-20 684,-392 684,-392 684,-398 678,-404 672,-404 672,-404 20,-404 20,-404 14,-404 8,-398 8,-392 8,-392 8,-20 8,-20 8,-14 14,-8 20,-8"/>
<text text-anchor="middle" x="346" y="-391.2" font-family="Times,serif" font-size="11.00" fill="gray">Global</text>
</g>
<g id="clust2" class="cluster"><title>cluster_\VoidInsight</title>
<path fill="none" stroke="gray" d="M28,-16C28,-16 664,-16 664,-16 670,-16 676,-22 676,-28 676,-28 676,-364 676,-364 676,-370 670,-376 664,-376 664,-376 28,-376 28,-376 22,-376 16,-370 16,-364 16,-364 16,-28 16,-28 16,-22 22,-16 28,-16"/>
<text text-anchor="middle" x="346" y="-363.2" font-family="Times,serif" font-size="11.00" fill="gray">VoidInsight</text>
</g>
<g id="clust3" class="cluster"><title>cluster_\VoidInsight\Taxtotum</title>
<path fill="none" stroke="gray" d="M36,-24C36,-24 656,-24 656,-24 662,-24 668,-30 668,-36 668,-36 668,-336 668,-336 668,-342 662,-348 656,-348 656,-348 36,-348 36,-348 30,-348 24,-342 24,-336 24,-336 24,-36 24,-36 24,-30 30,-24 36,-24"/>
<text text-anchor="middle" x="346" y="-335.2" font-family="Times,serif" font-size="11.00" fill="gray">Taxtotum</text>
</g>
<g id="clust4" class="cluster"><title>cluster_\VoidInsight\Taxtotum\Libs</title>
<path fill="none" stroke="gray" d="M44,-32C44,-32 648,-32 648,-32 654,-32 660,-38 660,-44 660,-44 660,-308 660,-308 660,-314 654,-320 648,-320 648,-320 44,-320 44,-320 38,-320 32,-314 32,-308 32,-308 32,-44 32,-44 32,-38 38,-32 44,-32"/>
<text text-anchor="middle" x="346" y="-307.2" font-family="Times,serif" font-size="11.00" fill="gray">Libs</text>
</g>
<g id="clust5" class="cluster"><title>cluster_\VoidInsight\Taxtotum\Libs\TaxStrategy</title>
<path fill="none" stroke="gray" d="M52,-166C52,-166 640,-166 640,-166 646,-166 652,-172 652,-178 652,-178 652,-280 652,-280 652,-286 646,-292 640,-292 640,-292 52,-292 52,-292 46,-292 40,-286 40,-280 40,-280 40,-178 40,-178 40,-172 46,-166 52,-166"/>
<text text-anchor="middle" x="346" y="-279.2" font-family="Times,serif" font-size="11.00" fill="gray">TaxStrategy</text>
</g>
<g id="clust6" class="cluster"><title>cluster_\VoidInsight\Taxtotum\Libs\TaxBuilder</title>
<path fill="none" stroke="gray" d="M69,-86C69,-86 619,-86 619,-86 625,-86 631,-92 631,-98 631,-98 631,-146 631,-146 631,-152 625,-158 619,-158 619,-158 69,-158 69,-158 63,-158 57,-152 57,-146 57,-146 57,-98 57,-98 57,-92 63,-86 69,-86"/>
<text text-anchor="middle" x="344" y="-145.2" font-family="Times,serif" font-size="11.00" fill="gray">TaxBuilder</text>
</g>
<!-- \\VoidInsight\\Taxtotum\\Libs\\TaxStrategy\\AbstractTaxStrategy -->
<g id="node1" class="node"><title>\\VoidInsight\\Taxtotum\\Libs\\TaxStrategy\\AbstractTaxStrategy</title>
<polygon fill="none" stroke="black" points="445.5,-237 300.5,-237 300.5,-201 445.5,-201 445.5,-237"/>
<text text-anchor="start" x="339" y="-222.2" font-family="Courier,monospace" font-size="11.00">«abstract»</text>
<text text-anchor="start" x="308.5" y="-210.2" font-family="Courier,monospace" font-size="11.00">AbstractTaxStrategy</text>
</g>
<!-- \\VoidInsight\\Taxtotum\\Libs\\TaxStrategy\\TaxStrategyInterface -->
<g id="node4" class="node"><title>\\VoidInsight\\Taxtotum\\Libs\\TaxStrategy\\TaxStrategyInterface</title>
<polygon fill="none" stroke="black" points="214,-210 62,-210 62,-174 214,-174 214,-210"/>
<text text-anchor="middle" x="138" y="-189.2" font-family="Courier,monospace" font-size="11.00">TaxStrategyInterface</text>
</g>
<!-- \\VoidInsight\\Taxtotum\\Libs\\TaxStrategy\\AbstractTaxStrategy&#45;&gt;\\VoidInsight\\Taxtotum\\Libs\\TaxStrategy\\TaxStrategyInterface -->
<g id="edge3" class="edge"><title>\\VoidInsight\\Taxtotum\\Libs\\TaxStrategy\\AbstractTaxStrategy&#45;&gt;\\VoidInsight\\Taxtotum\\Libs\\TaxStrategy\\TaxStrategyInterface</title>
<path fill="none" stroke="black" stroke-dasharray="1,5" d="M300.191,-210.679C276.217,-207.901 249.266,-204.778 224.364,-201.892"/>
<polygon fill="none" stroke="black" points="224.537,-198.389 214.201,-200.714 223.732,-205.342 224.537,-198.389"/>
</g>
<!-- \\VoidInsight\\Taxtotum\\Libs\\TaxStrategy\\TaxStrategyConfInterface -->
<g id="node5" class="node"><title>\\VoidInsight\\Taxtotum\\Libs\\TaxStrategy\\TaxStrategyConfInterface</title>
<polygon fill="none" stroke="black" points="227.5,-264 48.5,-264 48.5,-228 227.5,-228 227.5,-264"/>
<text text-anchor="middle" x="138" y="-243.2" font-family="Courier,monospace" font-size="11.00">TaxStrategyConfInterface</text>
</g>
<!-- \\VoidInsight\\Taxtotum\\Libs\\TaxStrategy\\AbstractTaxStrategy&#45;&gt;\\VoidInsight\\Taxtotum\\Libs\\TaxStrategy\\TaxStrategyConfInterface -->
<g id="edge4" class="edge"><title>\\VoidInsight\\Taxtotum\\Libs\\TaxStrategy\\AbstractTaxStrategy&#45;&gt;\\VoidInsight\\Taxtotum\\Libs\\TaxStrategy\\TaxStrategyConfInterface</title>
<path fill="none" stroke="black" stroke-dasharray="1,5" d="M300.191,-227.321C280.542,-229.598 258.893,-232.107 238.011,-234.527"/>
<polygon fill="none" stroke="black" points="237.364,-231.078 227.834,-235.706 238.17,-238.032 237.364,-231.078"/>
</g>
<!-- \\VoidInsight\\Taxtotum\\Libs\\TaxStrategy\\ZeroTaxStrategy -->
<g id="node2" class="node"><title>\\VoidInsight\\Taxtotum\\Libs\\TaxStrategy\\ZeroTaxStrategy</title>
<polygon fill="none" stroke="black" points="640,-264 522,-264 522,-228 640,-228 640,-264"/>
<text text-anchor="middle" x="581" y="-243.2" font-family="Courier,monospace" font-size="11.00">ZeroTaxStrategy</text>
</g>
<!-- \\VoidInsight\\Taxtotum\\Libs\\TaxStrategy\\ZeroTaxStrategy&#45;&gt;\\VoidInsight\\Taxtotum\\Libs\\TaxStrategy\\AbstractTaxStrategy -->
<g id="edge5" class="edge"><title>\\VoidInsight\\Taxtotum\\Libs\\TaxStrategy\\ZeroTaxStrategy&#45;&gt;\\VoidInsight\\Taxtotum\\Libs\\TaxStrategy\\AbstractTaxStrategy</title>
<path fill="none" stroke="black" d="M521.795,-238.371C501.263,-235.68 477.781,-232.602 455.671,-229.704"/>
<polygon fill="none" stroke="black" points="455.995,-226.217 445.625,-228.388 455.085,-233.158 455.995,-226.217"/>
</g>
<!-- \\VoidInsight\\Taxtotum\\Libs\\TaxStrategy\\RatioTaxStrategy -->
<g id="node3" class="node"><title>\\VoidInsight\\Taxtotum\\Libs\\TaxStrategy\\RatioTaxStrategy</title>
<polygon fill="none" stroke="black" points="643.5,-210 518.5,-210 518.5,-174 643.5,-174 643.5,-210"/>
<text text-anchor="middle" x="581" y="-189.2" font-family="Courier,monospace" font-size="11.00">RatioTaxStrategy</text>
</g>
<!-- \\VoidInsight\\Taxtotum\\Libs\\TaxStrategy\\RatioTaxStrategy&#45;&gt;\\VoidInsight\\Taxtotum\\Libs\\TaxStrategy\\AbstractTaxStrategy -->
<g id="edge8" class="edge"><title>\\VoidInsight\\Taxtotum\\Libs\\TaxStrategy\\RatioTaxStrategy&#45;&gt;\\VoidInsight\\Taxtotum\\Libs\\TaxStrategy\\AbstractTaxStrategy</title>
<path fill="none" stroke="black" d="M518.472,-200.064C498.808,-202.642 476.724,-205.536 455.85,-208.272"/>
<polygon fill="none" stroke="black" points="455.176,-204.83 445.716,-209.6 456.086,-211.771 455.176,-204.83"/>
</g>
<!-- \\VoidInsight\\Taxtotum\\Libs\\TaxBuilder\\AbstractTaxBuilder -->
<g id="node6" class="node"><title>\\VoidInsight\\Taxtotum\\Libs\\TaxBuilder\\AbstractTaxBuilder</title>
<polygon fill="none" stroke="black" points="442,-130 304,-130 304,-94 442,-94 442,-130"/>
<text text-anchor="start" x="339" y="-115.2" font-family="Courier,monospace" font-size="11.00">«abstract»</text>
<text text-anchor="start" x="312" y="-103.2" font-family="Courier,monospace" font-size="11.00">AbstractTaxBuilder</text>
</g>
<!-- \\VoidInsight\\Taxtotum\\Libs\\TaxBuilder\\TaxBuilderInterface -->
<g id="node8" class="node"><title>\\VoidInsight\\Taxtotum\\Libs\\TaxBuilder\\TaxBuilderInterface</title>
<polygon fill="none" stroke="black" points="210.5,-130 65.5,-130 65.5,-94 210.5,-94 210.5,-130"/>
<text text-anchor="middle" x="138" y="-109.2" font-family="Courier,monospace" font-size="11.00">TaxBuilderInterface</text>
</g>
<!-- \\VoidInsight\\Taxtotum\\Libs\\TaxBuilder\\AbstractTaxBuilder&#45;&gt;\\VoidInsight\\Taxtotum\\Libs\\TaxBuilder\\TaxBuilderInterface -->
<g id="edge2" class="edge"><title>\\VoidInsight\\Taxtotum\\Libs\\TaxBuilder\\AbstractTaxBuilder&#45;&gt;\\VoidInsight\\Taxtotum\\Libs\\TaxBuilder\\TaxBuilderInterface</title>
<path fill="none" stroke="black" stroke-dasharray="1,5" d="M303.98,-112C278.015,-112 248.14,-112 221.007,-112"/>
<polygon fill="none" stroke="black" points="220.757,-108.5 210.757,-112 220.757,-115.5 220.757,-108.5"/>
</g>
<!-- \\VoidInsight\\Taxtotum\\Libs\\TaxBuilder\\TaxBuilder -->
<g id="node7" class="node"><title>\\VoidInsight\\Taxtotum\\Libs\\TaxBuilder\\TaxBuilder</title>
<polygon fill="none" stroke="black" points="623,-130 539,-130 539,-94 623,-94 623,-130"/>
<text text-anchor="middle" x="581" y="-109.2" font-family="Courier,monospace" font-size="11.00">TaxBuilder</text>
</g>
<!-- \\VoidInsight\\Taxtotum\\Libs\\TaxBuilder\\TaxBuilder&#45;&gt;\\VoidInsight\\Taxtotum\\Libs\\TaxBuilder\\AbstractTaxBuilder -->
<g id="edge6" class="edge"><title>\\VoidInsight\\Taxtotum\\Libs\\TaxBuilder\\TaxBuilder&#45;&gt;\\VoidInsight\\Taxtotum\\Libs\\TaxBuilder\\AbstractTaxBuilder</title>
<path fill="none" stroke="black" d="M538.808,-112C514.126,-112 481.929,-112 452.55,-112"/>
<polygon fill="none" stroke="black" points="452.292,-108.5 442.292,-112 452.292,-115.5 452.292,-108.5"/>
</g>
<!-- \\VoidInsight\\Taxtotum\\Libs\\AbstractTax -->
<g id="node9" class="node"><title>\\VoidInsight\\Taxtotum\\Libs\\AbstractTax</title>
<polygon fill="none" stroke="black" points="418.5,-76 327.5,-76 327.5,-40 418.5,-40 418.5,-76"/>
<text text-anchor="start" x="339" y="-61.2" font-family="Courier,monospace" font-size="11.00">«abstract»</text>
<text text-anchor="start" x="335.5" y="-49.2" font-family="Courier,monospace" font-size="11.00">AbstractTax</text>
</g>
<!-- \\VoidInsight\\Taxtotum\\Libs\\TaxInterface -->
<g id="node11" class="node"><title>\\VoidInsight\\Taxtotum\\Libs\\TaxInterface</title>
<polygon fill="none" stroke="black" points="187,-76 89,-76 89,-40 187,-40 187,-76"/>
<text text-anchor="middle" x="138" y="-55.2" font-family="Courier,monospace" font-size="11.00">TaxInterface</text>
</g>
<!-- \\VoidInsight\\Taxtotum\\Libs\\AbstractTax&#45;&gt;\\VoidInsight\\Taxtotum\\Libs\\TaxInterface -->
<g id="edge1" class="edge"><title>\\VoidInsight\\Taxtotum\\Libs\\AbstractTax&#45;&gt;\\VoidInsight\\Taxtotum\\Libs\\TaxInterface</title>
<path fill="none" stroke="black" stroke-dasharray="1,5" d="M327.351,-58C290.397,-58 237.62,-58 197.329,-58"/>
<polygon fill="none" stroke="black" points="197.11,-54.5001 187.11,-58 197.11,-61.5001 197.11,-54.5001"/>
</g>
<!-- \\VoidInsight\\Taxtotum\\Libs\\Tax -->
<g id="node10" class="node"><title>\\VoidInsight\\Taxtotum\\Libs\\Tax</title>
<polygon fill="none" stroke="black" points="608,-76 554,-76 554,-40 608,-40 608,-76"/>
<text text-anchor="middle" x="581" y="-55.2" font-family="Courier,monospace" font-size="11.00">Tax</text>
</g>
<!-- \\VoidInsight\\Taxtotum\\Libs\\Tax&#45;&gt;\\VoidInsight\\Taxtotum\\Libs\\AbstractTax -->
<g id="edge7" class="edge"><title>\\VoidInsight\\Taxtotum\\Libs\\Tax&#45;&gt;\\VoidInsight\\Taxtotum\\Libs\\AbstractTax</title>
<path fill="none" stroke="black" d="M553.91,-58C522.637,-58 469.387,-58 428.912,-58"/>
<polygon fill="none" stroke="black" points="428.655,-54.5001 418.655,-58 428.655,-61.5001 428.655,-54.5001"/>
</g>
</g>
</svg>
