<?xml version="1.0" encoding="UTF-8" standalone="no"?>
<!DOCTYPE svg PUBLIC "-//W3C//DTD SVG 1.1//EN"
 "http://www.w3.org/Graphics/SVG/1.1/DTD/svg11.dtd">
<!-- Generated by graphviz version 2.36.0 (20140111.2315)
 -->
<!-- Title: G Pages: 1 -->
<svg width="700pt" height="500pt"
 viewBox="0.00 0.00 700.00 500.00" xmlns="http://www.w3.org/2000/svg" xmlns:xlink="http://www.w3.org/1999/xlink">
<g id="graph0" class="graph" transform="scale(1 1) rotate(0) translate(4 496)">
<title>G</title>
<polygon fill="white" stroke="none" points="-4,4 -4,-496 696,-496 696,4 -4,4"/>
<g id="clust1" class="cluster"><title>cluster_Global</title>
<path fill="none" stroke="gray" d="M20,-8C20,-8 672,-8 672,-8 678,-8 684,-14 684,-20 684,-20 684,-472 684,-472 684,-478 678,-484 672,-484 672,-484 20,-484 20,-484 14,-484 8,-478 8,-472 8,-472 8,-20 8,-20 8,-14 14,-8 20,-8"/>
<text text-anchor="middle" x="346" y="-471.2" font-family="Times,serif" font-size="11.00" fill="gray">Global</text>
</g>
<g id="clust2" class="cluster"><title>cluster_\VoidInsight</title>
<path fill="none" stroke="gray" d="M28,-16C28,-16 664,-16 664,-16 670,-16 676,-22 676,-28 676,-28 676,-444 676,-444 676,-450 670,-456 664,-456 664,-456 28,-456 28,-456 22,-456 16,-450 16,-444 16,-444 16,-28 16,-28 16,-22 22,-16 28,-16"/>
<text text-anchor="middle" x="346" y="-443.2" font-family="Times,serif" font-size="11.00" fill="gray">VoidInsight</text>
</g>
<g id="clust3" class="cluster"><title>cluster_\VoidInsight\Taxtotum</title>
<path fill="none" stroke="gray" d="M36,-24C36,-24 656,-24 656,-24 662,-24 668,-30 668,-36 668,-36 668,-416 668,-416 668,-422 662,-428 656,-428 656,-428 36,-428 36,-428 30,-428 24,-422 24,-416 24,-416 24,-36 24,-36 24,-30 30,-24 36,-24"/>
<text text-anchor="middle" x="346" y="-415.2" font-family="Times,serif" font-size="11.00" fill="gray">Taxtotum</text>
</g>
<g id="clust4" class="cluster"><title>cluster_\VoidInsight\Taxtotum\Libs</title>
<path fill="none" stroke="gray" d="M44,-32C44,-32 648,-32 648,-32 654,-32 660,-38 660,-44 660,-44 660,-388 660,-388 660,-394 654,-400 648,-400 648,-400 44,-400 44,-400 38,-400 32,-394 32,-388 32,-388 32,-44 32,-44 32,-38 38,-32 44,-32"/>
<text text-anchor="middle" x="346" y="-387.2" font-family="Times,serif" font-size="11.00" fill="gray">Libs</text>
</g>
<g id="clust5" class="cluster"><title>cluster_\VoidInsight\Taxtotum\Libs\TaxStrategy</title>
<path fill="none" stroke="gray" d="M52,-138C52,-138 640,-138 640,-138 646,-138 652,-144 652,-150 652,-150 652,-360 652,-360 652,-366 646,-372 640,-372 640,-372 52,-372 52,-372 46,-372 40,-366 40,-360 40,-360 40,-150 40,-150 40,-144 46,-138 52,-138"/>
<text text-anchor="middle" x="346" y="-359.2" font-family="Times,serif" font-size="11.00" fill="gray">TaxStrategy</text>
</g>
<!-- \\VoidInsight\\Taxtotum\\Libs\\TaxStrategy\\RatioTaxStrategy -->
<g id="node1" class="node"><title>\\VoidInsight\\Taxtotum\\Libs\\TaxStrategy\\RatioTaxStrategy</title>
<polygon fill="none" stroke="black" points="643.5,-344 518.5,-344 518.5,-308 643.5,-308 643.5,-344"/>
<text text-anchor="middle" x="581" y="-323.2" font-family="Courier,monospace" font-size="11.00">RatioTaxStrategy</text>
</g>
<!-- \\VoidInsight\\Taxtotum\\Libs\\TaxStrategy\\AbstractTaxStrategy -->
<g id="node2" class="node"><title>\\VoidInsight\\Taxtotum\\Libs\\TaxStrategy\\AbstractTaxStrategy</title>
<polygon fill="none" stroke="black" points="445.5,-237 300.5,-237 300.5,-201 445.5,-201 445.5,-237"/>
<text text-anchor="start" x="339" y="-222.2" font-family="Courier,monospace" font-size="11.00">«abstract»</text>
<text text-anchor="start" x="308.5" y="-210.2" font-family="Courier,monospace" font-size="11.00">AbstractTaxStrategy</text>
</g>
<!-- \\VoidInsight\\Taxtotum\\Libs\\TaxStrategy\\RatioTaxStrategy&#45;&gt;\\VoidInsight\\Taxtotum\\Libs\\TaxStrategy\\AbstractTaxStrategy -->
<g id="edge1" class="edge"><title>\\VoidInsight\\Taxtotum\\Libs\\TaxStrategy\\RatioTaxStrategy&#45;&gt;\\VoidInsight\\Taxtotum\\Libs\\TaxStrategy\\AbstractTaxStrategy</title>
<path fill="none" stroke="black" d="M537.061,-307.943C530.626,-305.052 524.105,-302.016 518,-299 481.908,-281.167 441.968,-258.757 413.326,-242.196"/>
<polygon fill="none" stroke="black" points="414.847,-239.032 404.442,-237.038 411.332,-245.086 414.847,-239.032"/>
</g>
<!-- \\VoidInsight\\Taxtotum\\Libs\\TaxStrategy\\TaxStrategyInterface -->
<g id="node6" class="node"><title>\\VoidInsight\\Taxtotum\\Libs\\TaxStrategy\\TaxStrategyInterface</title>
<polygon fill="none" stroke="black" points="214,-210 62,-210 62,-174 214,-174 214,-210"/>
<text text-anchor="middle" x="138" y="-189.2" font-family="Courier,monospace" font-size="11.00">TaxStrategyInterface</text>
</g>
<!-- \\VoidInsight\\Taxtotum\\Libs\\TaxStrategy\\AbstractTaxStrategy&#45;&gt;\\VoidInsight\\Taxtotum\\Libs\\TaxStrategy\\TaxStrategyInterface -->
<g id="edge4" class="edge"><title>\\VoidInsight\\Taxtotum\\Libs\\TaxStrategy\\AbstractTaxStrategy&#45;&gt;\\VoidInsight\\Taxtotum\\Libs\\TaxStrategy\\TaxStrategyInterface</title>
<path fill="none" stroke="black" stroke-dasharray="1,5" d="M300.191,-210.679C276.217,-207.901 249.266,-204.778 224.364,-201.892"/>
<polygon fill="none" stroke="black" points="224.537,-198.389 214.201,-200.714 223.732,-205.342 224.537,-198.389"/>
</g>
<!-- \\VoidInsight\\Taxtotum\\Libs\\TaxStrategy\\TaxStrategyConfInterface -->
<g id="node7" class="node"><title>\\VoidInsight\\Taxtotum\\Libs\\TaxStrategy\\TaxStrategyConfInterface</title>
<polygon fill="none" stroke="black" points="227.5,-264 48.5,-264 48.5,-228 227.5,-228 227.5,-264"/>
<text text-anchor="middle" x="138" y="-243.2" font-family="Courier,monospace" font-size="11.00">TaxStrategyConfInterface</text>
</g>
<!-- \\VoidInsight\\Taxtotum\\Libs\\TaxStrategy\\AbstractTaxStrategy&#45;&gt;\\VoidInsight\\Taxtotum\\Libs\\TaxStrategy\\TaxStrategyConfInterface -->
<g id="edge5" class="edge"><title>\\VoidInsight\\Taxtotum\\Libs\\TaxStrategy\\AbstractTaxStrategy&#45;&gt;\\VoidInsight\\Taxtotum\\Libs\\TaxStrategy\\TaxStrategyConfInterface</title>
<path fill="none" stroke="black" stroke-dasharray="1,5" d="M300.191,-227.321C280.542,-229.598 258.893,-232.107 238.011,-234.527"/>
<polygon fill="none" stroke="black" points="237.364,-231.078 227.834,-235.706 238.17,-238.032 237.364,-231.078"/>
</g>
<!-- \\VoidInsight\\Taxtotum\\Libs\\TaxStrategy\\ZeroTaxStrategy -->
<g id="node3" class="node"><title>\\VoidInsight\\Taxtotum\\Libs\\TaxStrategy\\ZeroTaxStrategy</title>
<polygon fill="none" stroke="black" points="640,-290 522,-290 522,-254 640,-254 640,-290"/>
<text text-anchor="middle" x="581" y="-269.2" font-family="Courier,monospace" font-size="11.00">ZeroTaxStrategy</text>
</g>
<!-- \\VoidInsight\\Taxtotum\\Libs\\TaxStrategy\\ZeroTaxStrategy&#45;&gt;\\VoidInsight\\Taxtotum\\Libs\\TaxStrategy\\AbstractTaxStrategy -->
<g id="edge6" class="edge"><title>\\VoidInsight\\Taxtotum\\Libs\\TaxStrategy\\ZeroTaxStrategy&#45;&gt;\\VoidInsight\\Taxtotum\\Libs\\TaxStrategy\\AbstractTaxStrategy</title>
<path fill="none" stroke="black" d="M521.795,-257.025C500.756,-251.612 476.62,-245.402 454.036,-239.592"/>
<polygon fill="none" stroke="black" points="454.684,-236.144 444.127,-237.042 452.939,-242.924 454.684,-236.144"/>
</g>
<!-- \\VoidInsight\\Taxtotum\\Libs\\TaxStrategy\\FixedTaxStrategy -->
<g id="node4" class="node"><title>\\VoidInsight\\Taxtotum\\Libs\\TaxStrategy\\FixedTaxStrategy</title>
<polygon fill="none" stroke="black" points="643.5,-236 518.5,-236 518.5,-200 643.5,-200 643.5,-236"/>
<text text-anchor="middle" x="581" y="-215.2" font-family="Courier,monospace" font-size="11.00">FixedTaxStrategy</text>
</g>
<!-- \\VoidInsight\\Taxtotum\\Libs\\TaxStrategy\\FixedTaxStrategy&#45;&gt;\\VoidInsight\\Taxtotum\\Libs\\TaxStrategy\\AbstractTaxStrategy -->
<g id="edge7" class="edge"><title>\\VoidInsight\\Taxtotum\\Libs\\TaxStrategy\\FixedTaxStrategy&#45;&gt;\\VoidInsight\\Taxtotum\\Libs\\TaxStrategy\\AbstractTaxStrategy</title>
<path fill="none" stroke="black" d="M518.472,-218.299C498.808,-218.394 476.724,-218.501 455.85,-218.603"/>
<polygon fill="none" stroke="black" points="455.699,-215.103 445.716,-218.652 455.733,-222.103 455.699,-215.103"/>
</g>
<!-- \\VoidInsight\\Taxtotum\\Libs\\TaxStrategy\\DummyTaxStrategy -->
<g id="node5" class="node"><title>\\VoidInsight\\Taxtotum\\Libs\\TaxStrategy\\DummyTaxStrategy</title>
<polygon fill="none" stroke="black" points="643.5,-182 518.5,-182 518.5,-146 643.5,-146 643.5,-182"/>
<text text-anchor="middle" x="581" y="-161.2" font-family="Courier,monospace" font-size="11.00">DummyTaxStrategy</text>
</g>
<!-- \\VoidInsight\\Taxtotum\\Libs\\TaxStrategy\\DummyTaxStrategy&#45;&gt;\\VoidInsight\\Taxtotum\\Libs\\TaxStrategy\\AbstractTaxStrategy -->
<g id="edge9" class="edge"><title>\\VoidInsight\\Taxtotum\\Libs\\TaxStrategy\\DummyTaxStrategy&#45;&gt;\\VoidInsight\\Taxtotum\\Libs\\TaxStrategy\\AbstractTaxStrategy</title>
<path fill="none" stroke="black" d="M518.472,-180.427C497.404,-186.052 473.557,-192.419 451.398,-198.335"/>
<polygon fill="none" stroke="black" points="450.445,-194.967 441.686,-200.928 452.251,-201.73 450.445,-194.967"/>
</g>
<!-- \\VoidInsight\\Taxtotum\\Libs\\AbstractTax -->
<g id="node8" class="node"><title>\\VoidInsight\\Taxtotum\\Libs\\AbstractTax</title>
<polygon fill="none" stroke="black" points="418.5,-102 327.5,-102 327.5,-66 418.5,-66 418.5,-102"/>
<text text-anchor="start" x="339" y="-87.2" font-family="Courier,monospace" font-size="11.00">«abstract»</text>
<text text-anchor="start" x="335.5" y="-75.2" font-family="Courier,monospace" font-size="11.00">AbstractTax</text>
</g>
<!-- \\VoidInsight\\Taxtotum\\Libs\\TaxInterface -->
<g id="node10" class="node"><title>\\VoidInsight\\Taxtotum\\Libs\\TaxInterface</title>
<polygon fill="none" stroke="black" points="187,-76 89,-76 89,-40 187,-40 187,-76"/>
<text text-anchor="middle" x="138" y="-55.2" font-family="Courier,monospace" font-size="11.00">TaxInterface</text>
</g>
<!-- \\VoidInsight\\Taxtotum\\Libs\\AbstractTax&#45;&gt;\\VoidInsight\\Taxtotum\\Libs\\TaxInterface -->
<g id="edge2" class="edge"><title>\\VoidInsight\\Taxtotum\\Libs\\AbstractTax&#45;&gt;\\VoidInsight\\Taxtotum\\Libs\\TaxInterface</title>
<path fill="none" stroke="black" stroke-dasharray="1,5" d="M327.351,-79.0177C290.319,-74.8854 237.396,-68.9798 197.073,-64.4802"/>
<polygon fill="none" stroke="black" points="197.436,-60.9992 187.11,-63.3685 196.66,-67.956 197.436,-60.9992"/>
</g>
<!-- \\VoidInsight\\Taxtotum\\Libs\\TaxConfInterface -->
<g id="node11" class="node"><title>\\VoidInsight\\Taxtotum\\Libs\\TaxConfInterface</title>
<polygon fill="none" stroke="black" points="200.5,-130 75.5,-130 75.5,-94 200.5,-94 200.5,-130"/>
<text text-anchor="middle" x="138" y="-109.2" font-family="Courier,monospace" font-size="11.00">TaxConfInterface</text>
</g>
<!-- \\VoidInsight\\Taxtotum\\Libs\\AbstractTax&#45;&gt;\\VoidInsight\\Taxtotum\\Libs\\TaxConfInterface -->
<g id="edge3" class="edge"><title>\\VoidInsight\\Taxtotum\\Libs\\AbstractTax&#45;&gt;\\VoidInsight\\Taxtotum\\Libs\\TaxConfInterface</title>
<path fill="none" stroke="black" stroke-dasharray="1,5" d="M327.351,-89.3656C294.357,-93.3304 248.75,-98.8112 210.677,-103.386"/>
<polygon fill="none" stroke="black" points="210.177,-99.9213 200.666,-104.59 211.012,-106.871 210.177,-99.9213"/>
</g>
<!-- \\VoidInsight\\Taxtotum\\Libs\\Tax -->
<g id="node9" class="node"><title>\\VoidInsight\\Taxtotum\\Libs\\Tax</title>
<polygon fill="none" stroke="black" points="608,-102 554,-102 554,-66 608,-66 608,-102"/>
<text text-anchor="middle" x="581" y="-81.2" font-family="Courier,monospace" font-size="11.00">Tax</text>
</g>
<!-- \\VoidInsight\\Taxtotum\\Libs\\Tax&#45;&gt;\\VoidInsight\\Taxtotum\\Libs\\AbstractTax -->
<g id="edge8" class="edge"><title>\\VoidInsight\\Taxtotum\\Libs\\Tax&#45;&gt;\\VoidInsight\\Taxtotum\\Libs\\AbstractTax</title>
<path fill="none" stroke="black" d="M553.91,-84C522.637,-84 469.387,-84 428.912,-84"/>
<polygon fill="none" stroke="black" points="428.655,-80.5001 418.655,-84 428.655,-87.5001 428.655,-80.5001"/>
</g>
</g>
</svg>
