<?xml version="1.0" encoding="UTF-8" standalone="no"?>
<!DOCTYPE svg PUBLIC "-//W3C//DTD SVG 1.1//EN"
 "http://www.w3.org/Graphics/SVG/1.1/DTD/svg11.dtd">
<!-- Generated by graphviz version 2.36.0 (20140111.2315)
 -->
<!-- Title: G Pages: 1 -->
<svg width="1052pt" height="446pt"
 viewBox="0.00 0.00 1052.00 446.00" xmlns="http://www.w3.org/2000/svg" xmlns:xlink="http://www.w3.org/1999/xlink">
<g id="graph0" class="graph" transform="scale(1 1) rotate(0) translate(4 442)">
<title>G</title>
<polygon fill="white" stroke="none" points="-4,4 -4,-442 1048,-442 1048,4 -4,4"/>
<g id="clust1" class="cluster"><title>cluster_Global</title>
<path fill="none" stroke="gray" d="M20,-8C20,-8 1024,-8 1024,-8 1030,-8 1036,-14 1036,-20 1036,-20 1036,-418 1036,-418 1036,-424 1030,-430 1024,-430 1024,-430 20,-430 20,-430 14,-430 8,-424 8,-418 8,-418 8,-20 8,-20 8,-14 14,-8 20,-8"/>
<text text-anchor="middle" x="522" y="-417.2" font-family="Times,serif" font-size="11.00" fill="gray">Global</text>
</g>
<g id="clust2" class="cluster"><title>cluster_\VoidInsight</title>
<path fill="none" stroke="gray" d="M28,-16C28,-16 1016,-16 1016,-16 1022,-16 1028,-22 1028,-28 1028,-28 1028,-390 1028,-390 1028,-396 1022,-402 1016,-402 1016,-402 28,-402 28,-402 22,-402 16,-396 16,-390 16,-390 16,-28 16,-28 16,-22 22,-16 28,-16"/>
<text text-anchor="middle" x="522" y="-389.2" font-family="Times,serif" font-size="11.00" fill="gray">VoidInsight</text>
</g>
<g id="clust3" class="cluster"><title>cluster_\VoidInsight\Taxtotum</title>
<path fill="none" stroke="gray" d="M36,-24C36,-24 1008,-24 1008,-24 1014,-24 1020,-30 1020,-36 1020,-36 1020,-362 1020,-362 1020,-368 1014,-374 1008,-374 1008,-374 36,-374 36,-374 30,-374 24,-368 24,-362 24,-362 24,-36 24,-36 24,-30 30,-24 36,-24"/>
<text text-anchor="middle" x="522" y="-361.2" font-family="Times,serif" font-size="11.00" fill="gray">Taxtotum</text>
</g>
<g id="clust4" class="cluster"><title>cluster_\VoidInsight\Taxtotum\Libs</title>
<path fill="none" stroke="gray" d="M44,-32C44,-32 1000,-32 1000,-32 1006,-32 1012,-38 1012,-44 1012,-44 1012,-334 1012,-334 1012,-340 1006,-346 1000,-346 1000,-346 44,-346 44,-346 38,-346 32,-340 32,-334 32,-334 32,-44 32,-44 32,-38 38,-32 44,-32"/>
<text text-anchor="middle" x="522" y="-333.2" font-family="Times,serif" font-size="11.00" fill="gray">Libs</text>
</g>
<g id="clust5" class="cluster"><title>cluster_\VoidInsight\Taxtotum\Libs\TaxStrategy</title>
<path fill="none" stroke="gray" d="M52,-138C52,-138 992,-138 992,-138 998,-138 1004,-144 1004,-150 1004,-150 1004,-306 1004,-306 1004,-312 998,-318 992,-318 992,-318 52,-318 52,-318 46,-318 40,-312 40,-306 40,-306 40,-150 40,-150 40,-144 46,-138 52,-138"/>
<text text-anchor="middle" x="522" y="-305.2" font-family="Times,serif" font-size="11.00" fill="gray">TaxStrategy</text>
</g>
<!-- \\VoidInsight\\Taxtotum\\Libs\\TaxStrategy\\MinimumDecoratorTaxStrategy -->
<g id="node1" class="node"><title>\\VoidInsight\\Taxtotum\\Libs\\TaxStrategy\\MinimumDecoratorTaxStrategy</title>
<polygon fill="none" stroke="black" points="995.5,-236 796.5,-236 796.5,-200 995.5,-200 995.5,-236"/>
<text text-anchor="middle" x="896" y="-215.2" font-family="Courier,monospace" font-size="11.00">MinimumDecoratorTaxStrategy</text>
</g>
<!-- \\VoidInsight\\Taxtotum\\Libs\\TaxStrategy\\AbstractDecoratorTaxStrategy -->
<g id="node5" class="node"><title>\\VoidInsight\\Taxtotum\\Libs\\TaxStrategy\\AbstractDecoratorTaxStrategy</title>
<polygon fill="none" stroke="black" points="724,-182 518,-182 518,-146 724,-146 724,-182"/>
<text text-anchor="start" x="587" y="-167.2" font-family="Courier,monospace" font-size="11.00">«abstract»</text>
<text text-anchor="start" x="526" y="-155.2" font-family="Courier,monospace" font-size="11.00">AbstractDecoratorTaxStrategy</text>
</g>
<!-- \\VoidInsight\\Taxtotum\\Libs\\TaxStrategy\\MinimumDecoratorTaxStrategy&#45;&gt;\\VoidInsight\\Taxtotum\\Libs\\TaxStrategy\\AbstractDecoratorTaxStrategy -->
<g id="edge1" class="edge"><title>\\VoidInsight\\Taxtotum\\Libs\\TaxStrategy\\MinimumDecoratorTaxStrategy&#45;&gt;\\VoidInsight\\Taxtotum\\Libs\\TaxStrategy\\AbstractDecoratorTaxStrategy</title>
<path fill="none" stroke="black" d="M803.715,-199.944C777.875,-194.833 749.598,-189.239 723.21,-184.02"/>
<polygon fill="none" stroke="black" points="723.688,-180.546 713.199,-182.039 722.329,-187.413 723.688,-180.546"/>
</g>
<!-- \\VoidInsight\\Taxtotum\\Libs\\TaxStrategy\\RatioTaxStrategy -->
<g id="node2" class="node"><title>\\VoidInsight\\Taxtotum\\Libs\\TaxStrategy\\RatioTaxStrategy</title>
<polygon fill="none" stroke="black" points="683.5,-290 558.5,-290 558.5,-254 683.5,-254 683.5,-290"/>
<text text-anchor="middle" x="621" y="-269.2" font-family="Courier,monospace" font-size="11.00">RatioTaxStrategy</text>
</g>
<!-- \\VoidInsight\\Taxtotum\\Libs\\TaxStrategy\\AbstractTaxStrategy -->
<g id="node3" class="node"><title>\\VoidInsight\\Taxtotum\\Libs\\TaxStrategy\\AbstractTaxStrategy</title>
<polygon fill="none" stroke="black" points="445.5,-236 300.5,-236 300.5,-200 445.5,-200 445.5,-236"/>
<text text-anchor="start" x="339" y="-221.2" font-family="Courier,monospace" font-size="11.00">«abstract»</text>
<text text-anchor="start" x="308.5" y="-209.2" font-family="Courier,monospace" font-size="11.00">AbstractTaxStrategy</text>
</g>
<!-- \\VoidInsight\\Taxtotum\\Libs\\TaxStrategy\\RatioTaxStrategy&#45;&gt;\\VoidInsight\\Taxtotum\\Libs\\TaxStrategy\\AbstractTaxStrategy -->
<g id="edge2" class="edge"><title>\\VoidInsight\\Taxtotum\\Libs\\TaxStrategy\\RatioTaxStrategy&#45;&gt;\\VoidInsight\\Taxtotum\\Libs\\TaxStrategy\\AbstractTaxStrategy</title>
<path fill="none" stroke="black" d="M558.241,-258.443C527.286,-251.648 489.382,-243.328 456.02,-236.004"/>
<polygon fill="none" stroke="black" points="456.343,-232.492 445.825,-233.766 454.842,-239.329 456.343,-232.492"/>
</g>
<!-- \\VoidInsight\\Taxtotum\\Libs\\TaxStrategy\\TaxStrategyInterface -->
<g id="node7" class="node"><title>\\VoidInsight\\Taxtotum\\Libs\\TaxStrategy\\TaxStrategyInterface</title>
<polygon fill="none" stroke="black" points="214,-209 62,-209 62,-173 214,-173 214,-209"/>
<text text-anchor="middle" x="138" y="-188.2" font-family="Courier,monospace" font-size="11.00">TaxStrategyInterface</text>
</g>
<!-- \\VoidInsight\\Taxtotum\\Libs\\TaxStrategy\\AbstractTaxStrategy&#45;&gt;\\VoidInsight\\Taxtotum\\Libs\\TaxStrategy\\TaxStrategyInterface -->
<g id="edge5" class="edge"><title>\\VoidInsight\\Taxtotum\\Libs\\TaxStrategy\\AbstractTaxStrategy&#45;&gt;\\VoidInsight\\Taxtotum\\Libs\\TaxStrategy\\TaxStrategyInterface</title>
<path fill="none" stroke="black" stroke-dasharray="1,5" d="M300.191,-209.679C276.217,-206.901 249.266,-203.778 224.364,-200.892"/>
<polygon fill="none" stroke="black" points="224.537,-197.389 214.201,-199.714 223.732,-204.342 224.537,-197.389"/>
</g>
<!-- \\VoidInsight\\Taxtotum\\Libs\\TaxStrategy\\TaxStrategyConfInterface -->
<g id="node8" class="node"><title>\\VoidInsight\\Taxtotum\\Libs\\TaxStrategy\\TaxStrategyConfInterface</title>
<polygon fill="none" stroke="black" points="227.5,-263 48.5,-263 48.5,-227 227.5,-227 227.5,-263"/>
<text text-anchor="middle" x="138" y="-242.2" font-family="Courier,monospace" font-size="11.00">TaxStrategyConfInterface</text>
</g>
<!-- \\VoidInsight\\Taxtotum\\Libs\\TaxStrategy\\AbstractTaxStrategy&#45;&gt;\\VoidInsight\\Taxtotum\\Libs\\TaxStrategy\\TaxStrategyConfInterface -->
<g id="edge6" class="edge"><title>\\VoidInsight\\Taxtotum\\Libs\\TaxStrategy\\AbstractTaxStrategy&#45;&gt;\\VoidInsight\\Taxtotum\\Libs\\TaxStrategy\\TaxStrategyConfInterface</title>
<path fill="none" stroke="black" stroke-dasharray="1,5" d="M300.191,-226.321C280.542,-228.598 258.893,-231.107 238.011,-233.527"/>
<polygon fill="none" stroke="black" points="237.364,-230.078 227.834,-234.706 238.17,-237.032 237.364,-230.078"/>
</g>
<!-- \\VoidInsight\\Taxtotum\\Libs\\TaxStrategy\\FixedTaxStrategy -->
<g id="node4" class="node"><title>\\VoidInsight\\Taxtotum\\Libs\\TaxStrategy\\FixedTaxStrategy</title>
<polygon fill="none" stroke="black" points="683.5,-236 558.5,-236 558.5,-200 683.5,-200 683.5,-236"/>
<text text-anchor="middle" x="621" y="-215.2" font-family="Courier,monospace" font-size="11.00">FixedTaxStrategy</text>
</g>
<!-- \\VoidInsight\\Taxtotum\\Libs\\TaxStrategy\\FixedTaxStrategy&#45;&gt;\\VoidInsight\\Taxtotum\\Libs\\TaxStrategy\\AbstractTaxStrategy -->
<g id="edge7" class="edge"><title>\\VoidInsight\\Taxtotum\\Libs\\TaxStrategy\\FixedTaxStrategy&#45;&gt;\\VoidInsight\\Taxtotum\\Libs\\TaxStrategy\\AbstractTaxStrategy</title>
<path fill="none" stroke="black" d="M558.241,-218C527.286,-218 489.382,-218 456.02,-218"/>
<polygon fill="none" stroke="black" points="455.825,-214.5 445.825,-218 455.825,-221.5 455.825,-214.5"/>
</g>
<!-- \\VoidInsight\\Taxtotum\\Libs\\TaxStrategy\\AbstractDecoratorTaxStrategy&#45;&gt;\\VoidInsight\\Taxtotum\\Libs\\TaxStrategy\\AbstractTaxStrategy -->
<g id="edge9" class="edge"><title>\\VoidInsight\\Taxtotum\\Libs\\TaxStrategy\\AbstractDecoratorTaxStrategy&#45;&gt;\\VoidInsight\\Taxtotum\\Libs\\TaxStrategy\\AbstractTaxStrategy</title>
<path fill="none" stroke="black" d="M537.744,-182.056C511.363,-187.847 482.163,-194.257 455.814,-200.041"/>
<polygon fill="none" stroke="black" points="454.884,-196.662 445.867,-202.224 456.385,-203.499 454.884,-196.662"/>
</g>
<!-- \\VoidInsight\\Taxtotum\\Libs\\TaxStrategy\\MaximumDecoratorTaxStrategy -->
<g id="node6" class="node"><title>\\VoidInsight\\Taxtotum\\Libs\\TaxStrategy\\MaximumDecoratorTaxStrategy</title>
<polygon fill="none" stroke="black" points="995.5,-182 796.5,-182 796.5,-146 995.5,-146 995.5,-182"/>
<text text-anchor="middle" x="896" y="-161.2" font-family="Courier,monospace" font-size="11.00">MaximumDecoratorTaxStrategy</text>
</g>
<!-- \\VoidInsight\\Taxtotum\\Libs\\TaxStrategy\\MaximumDecoratorTaxStrategy&#45;&gt;\\VoidInsight\\Taxtotum\\Libs\\TaxStrategy\\AbstractDecoratorTaxStrategy -->
<g id="edge10" class="edge"><title>\\VoidInsight\\Taxtotum\\Libs\\TaxStrategy\\MaximumDecoratorTaxStrategy&#45;&gt;\\VoidInsight\\Taxtotum\\Libs\\TaxStrategy\\AbstractDecoratorTaxStrategy</title>
<path fill="none" stroke="black" d="M796.441,-164C776.228,-164 754.809,-164 734.159,-164"/>
<polygon fill="none" stroke="black" points="734.092,-160.5 724.092,-164 734.092,-167.5 734.092,-160.5"/>
</g>
<!-- \\VoidInsight\\Taxtotum\\Libs\\AbstractTax -->
<g id="node9" class="node"><title>\\VoidInsight\\Taxtotum\\Libs\\AbstractTax</title>
<polygon fill="none" stroke="black" points="666.5,-102 575.5,-102 575.5,-66 666.5,-66 666.5,-102"/>
<text text-anchor="start" x="587" y="-87.2" font-family="Courier,monospace" font-size="11.00">«abstract»</text>
<text text-anchor="start" x="583.5" y="-75.2" font-family="Courier,monospace" font-size="11.00">AbstractTax</text>
</g>
<!-- \\VoidInsight\\Taxtotum\\Libs\\TaxInterface -->
<g id="node11" class="node"><title>\\VoidInsight\\Taxtotum\\Libs\\TaxInterface</title>
<polygon fill="none" stroke="black" points="422,-76 324,-76 324,-40 422,-40 422,-76"/>
<text text-anchor="middle" x="373" y="-55.2" font-family="Courier,monospace" font-size="11.00">TaxInterface</text>
</g>
<!-- \\VoidInsight\\Taxtotum\\Libs\\AbstractTax&#45;&gt;\\VoidInsight\\Taxtotum\\Libs\\TaxInterface -->
<g id="edge3" class="edge"><title>\\VoidInsight\\Taxtotum\\Libs\\AbstractTax&#45;&gt;\\VoidInsight\\Taxtotum\\Libs\\TaxInterface</title>
<path fill="none" stroke="black" stroke-dasharray="1,5" d="M575.451,-79.2916C535.246,-75.0422 475.847,-68.7643 431.958,-64.1256"/>
<polygon fill="none" stroke="black" points="432.313,-60.6437 422,-63.0732 431.577,-67.605 432.313,-60.6437"/>
</g>
<!-- \\VoidInsight\\Taxtotum\\Libs\\TaxConfInterface -->
<g id="node12" class="node"><title>\\VoidInsight\\Taxtotum\\Libs\\TaxConfInterface</title>
<polygon fill="none" stroke="black" points="435.5,-130 310.5,-130 310.5,-94 435.5,-94 435.5,-130"/>
<text text-anchor="middle" x="373" y="-109.2" font-family="Courier,monospace" font-size="11.00">TaxConfInterface</text>
</g>
<!-- \\VoidInsight\\Taxtotum\\Libs\\AbstractTax&#45;&gt;\\VoidInsight\\Taxtotum\\Libs\\TaxConfInterface -->
<g id="edge4" class="edge"><title>\\VoidInsight\\Taxtotum\\Libs\\AbstractTax&#45;&gt;\\VoidInsight\\Taxtotum\\Libs\\TaxConfInterface</title>
<path fill="none" stroke="black" stroke-dasharray="1,5" d="M575.451,-89.0706C539.38,-93.1762 487.86,-99.0403 445.952,-103.81"/>
<polygon fill="none" stroke="black" points="445.336,-100.358 435.796,-104.966 446.128,-107.313 445.336,-100.358"/>
</g>
<!-- \\VoidInsight\\Taxtotum\\Libs\\Tax -->
<g id="node10" class="node"><title>\\VoidInsight\\Taxtotum\\Libs\\Tax</title>
<polygon fill="none" stroke="black" points="923,-102 869,-102 869,-66 923,-66 923,-102"/>
<text text-anchor="middle" x="896" y="-81.2" font-family="Courier,monospace" font-size="11.00">Tax</text>
</g>
<!-- \\VoidInsight\\Taxtotum\\Libs\\Tax&#45;&gt;\\VoidInsight\\Taxtotum\\Libs\\AbstractTax -->
<g id="edge8" class="edge"><title>\\VoidInsight\\Taxtotum\\Libs\\Tax&#45;&gt;\\VoidInsight\\Taxtotum\\Libs\\AbstractTax</title>
<path fill="none" stroke="black" d="M868.824,-84C824.885,-84 735.395,-84 677.104,-84"/>
<polygon fill="none" stroke="black" points="676.959,-80.5001 666.959,-84 676.958,-87.5001 676.959,-80.5001"/>
</g>
</g>
</svg>
