<?xml version="1.0" encoding="UTF-8" standalone="no"?>
<!DOCTYPE svg PUBLIC "-//W3C//DTD SVG 1.1//EN"
 "http://www.w3.org/Graphics/SVG/1.1/DTD/svg11.dtd">
<!-- Generated by graphviz version 2.36.0 (20140111.2315)
 -->
<!-- Title: G Pages: 1 -->
<svg width="958pt" height="500pt"
 viewBox="0.00 0.00 958.00 500.00" xmlns="http://www.w3.org/2000/svg" xmlns:xlink="http://www.w3.org/1999/xlink">
<g id="graph0" class="graph" transform="scale(1 1) rotate(0) translate(4 496)">
<title>G</title>
<polygon fill="white" stroke="none" points="-4,4 -4,-496 954,-496 954,4 -4,4"/>
<g id="clust1" class="cluster"><title>cluster_Global</title>
<path fill="none" stroke="gray" d="M20,-8C20,-8 930,-8 930,-8 936,-8 942,-14 942,-20 942,-20 942,-472 942,-472 942,-478 936,-484 930,-484 930,-484 20,-484 20,-484 14,-484 8,-478 8,-472 8,-472 8,-20 8,-20 8,-14 14,-8 20,-8"/>
<text text-anchor="middle" x="475" y="-471.2" font-family="Times,serif" font-size="11.00" fill="gray">Global</text>
</g>
<g id="clust2" class="cluster"><title>cluster_\VoidInsight</title>
<path fill="none" stroke="gray" d="M28,-16C28,-16 922,-16 922,-16 928,-16 934,-22 934,-28 934,-28 934,-444 934,-444 934,-450 928,-456 922,-456 922,-456 28,-456 28,-456 22,-456 16,-450 16,-444 16,-444 16,-28 16,-28 16,-22 22,-16 28,-16"/>
<text text-anchor="middle" x="475" y="-443.2" font-family="Times,serif" font-size="11.00" fill="gray">VoidInsight</text>
</g>
<g id="clust3" class="cluster"><title>cluster_\VoidInsight\Taxtotum</title>
<path fill="none" stroke="gray" d="M36,-24C36,-24 914,-24 914,-24 920,-24 926,-30 926,-36 926,-36 926,-416 926,-416 926,-422 920,-428 914,-428 914,-428 36,-428 36,-428 30,-428 24,-422 24,-416 24,-416 24,-36 24,-36 24,-30 30,-24 36,-24"/>
<text text-anchor="middle" x="475" y="-415.2" font-family="Times,serif" font-size="11.00" fill="gray">Taxtotum</text>
</g>
<g id="clust4" class="cluster"><title>cluster_\VoidInsight\Taxtotum\Libs</title>
<path fill="none" stroke="gray" d="M44,-32C44,-32 906,-32 906,-32 912,-32 918,-38 918,-44 918,-44 918,-388 918,-388 918,-394 912,-400 906,-400 906,-400 44,-400 44,-400 38,-400 32,-394 32,-388 32,-388 32,-44 32,-44 32,-38 38,-32 44,-32"/>
<text text-anchor="middle" x="475" y="-387.2" font-family="Times,serif" font-size="11.00" fill="gray">Libs</text>
</g>
<g id="clust5" class="cluster"><title>cluster_\VoidInsight\Taxtotum\Libs\TaxStrategy</title>
<path fill="none" stroke="gray" d="M52,-138C52,-138 898,-138 898,-138 904,-138 910,-144 910,-150 910,-150 910,-360 910,-360 910,-366 904,-372 898,-372 898,-372 52,-372 52,-372 46,-372 40,-366 40,-360 40,-360 40,-150 40,-150 40,-144 46,-138 52,-138"/>
<text text-anchor="middle" x="475" y="-359.2" font-family="Times,serif" font-size="11.00" fill="gray">TaxStrategy</text>
</g>
<!-- \\VoidInsight\\Taxtotum\\Libs\\TaxStrategy\\RatioTaxStrategy -->
<g id="node1" class="node"><title>\\VoidInsight\\Taxtotum\\Libs\\TaxStrategy\\RatioTaxStrategy</title>
<polygon fill="none" stroke="black" points="643.5,-182 518.5,-182 518.5,-146 643.5,-146 643.5,-182"/>
<text text-anchor="middle" x="581" y="-161.2" font-family="Courier,monospace" font-size="11.00">RatioTaxStrategy</text>
</g>
<!-- \\VoidInsight\\Taxtotum\\Libs\\TaxStrategy\\AbstractTaxStrategy -->
<g id="node2" class="node"><title>\\VoidInsight\\Taxtotum\\Libs\\TaxStrategy\\AbstractTaxStrategy</title>
<polygon fill="none" stroke="black" points="445.5,-263 300.5,-263 300.5,-227 445.5,-227 445.5,-263"/>
<text text-anchor="start" x="339" y="-248.2" font-family="Courier,monospace" font-size="11.00">«abstract»</text>
<text text-anchor="start" x="308.5" y="-236.2" font-family="Courier,monospace" font-size="11.00">AbstractTaxStrategy</text>
</g>
<!-- \\VoidInsight\\Taxtotum\\Libs\\TaxStrategy\\RatioTaxStrategy&#45;&gt;\\VoidInsight\\Taxtotum\\Libs\\TaxStrategy\\AbstractTaxStrategy -->
<g id="edge1" class="edge"><title>\\VoidInsight\\Taxtotum\\Libs\\TaxStrategy\\RatioTaxStrategy&#45;&gt;\\VoidInsight\\Taxtotum\\Libs\\TaxStrategy\\AbstractTaxStrategy</title>
<path fill="none" stroke="black" d="M538.293,-182.112C531.507,-185.073 524.555,-188.116 518,-191 485.947,-205.102 478.806,-210.75 446,-223 445.556,-223.166 445.11,-223.331 444.663,-223.496"/>
<polygon fill="none" stroke="black" points="443.311,-220.262 435.061,-226.911 445.656,-226.858 443.311,-220.262"/>
</g>
<!-- \\VoidInsight\\Taxtotum\\Libs\\TaxStrategy\\TaxStrategyInterface -->
<g id="node7" class="node"><title>\\VoidInsight\\Taxtotum\\Libs\\TaxStrategy\\TaxStrategyInterface</title>
<polygon fill="none" stroke="black" points="214,-236 62,-236 62,-200 214,-200 214,-236"/>
<text text-anchor="middle" x="138" y="-215.2" font-family="Courier,monospace" font-size="11.00">TaxStrategyInterface</text>
</g>
<!-- \\VoidInsight\\Taxtotum\\Libs\\TaxStrategy\\AbstractTaxStrategy&#45;&gt;\\VoidInsight\\Taxtotum\\Libs\\TaxStrategy\\TaxStrategyInterface -->
<g id="edge4" class="edge"><title>\\VoidInsight\\Taxtotum\\Libs\\TaxStrategy\\AbstractTaxStrategy&#45;&gt;\\VoidInsight\\Taxtotum\\Libs\\TaxStrategy\\TaxStrategyInterface</title>
<path fill="none" stroke="black" stroke-dasharray="1,5" d="M300.191,-236.679C276.217,-233.901 249.266,-230.778 224.364,-227.892"/>
<polygon fill="none" stroke="black" points="224.537,-224.389 214.201,-226.714 223.732,-231.342 224.537,-224.389"/>
</g>
<!-- \\VoidInsight\\Taxtotum\\Libs\\TaxStrategy\\TaxStrategyConfInterface -->
<g id="node8" class="node"><title>\\VoidInsight\\Taxtotum\\Libs\\TaxStrategy\\TaxStrategyConfInterface</title>
<polygon fill="none" stroke="black" points="227.5,-290 48.5,-290 48.5,-254 227.5,-254 227.5,-290"/>
<text text-anchor="middle" x="138" y="-269.2" font-family="Courier,monospace" font-size="11.00">TaxStrategyConfInterface</text>
</g>
<!-- \\VoidInsight\\Taxtotum\\Libs\\TaxStrategy\\AbstractTaxStrategy&#45;&gt;\\VoidInsight\\Taxtotum\\Libs\\TaxStrategy\\TaxStrategyConfInterface -->
<g id="edge5" class="edge"><title>\\VoidInsight\\Taxtotum\\Libs\\TaxStrategy\\AbstractTaxStrategy&#45;&gt;\\VoidInsight\\Taxtotum\\Libs\\TaxStrategy\\TaxStrategyConfInterface</title>
<path fill="none" stroke="black" stroke-dasharray="1,5" d="M300.191,-253.321C280.542,-255.598 258.893,-258.107 238.011,-260.527"/>
<polygon fill="none" stroke="black" points="237.364,-257.078 227.834,-261.706 238.17,-264.032 237.364,-257.078"/>
</g>
<!-- \\VoidInsight\\Taxtotum\\Libs\\TaxStrategy\\ZeroTaxStrategy -->
<g id="node3" class="node"><title>\\VoidInsight\\Taxtotum\\Libs\\TaxStrategy\\ZeroTaxStrategy</title>
<polygon fill="none" stroke="black" points="640,-344 522,-344 522,-308 640,-308 640,-344"/>
<text text-anchor="middle" x="581" y="-323.2" font-family="Courier,monospace" font-size="11.00">ZeroTaxStrategy</text>
</g>
<!-- \\VoidInsight\\Taxtotum\\Libs\\TaxStrategy\\ZeroTaxStrategy&#45;&gt;\\VoidInsight\\Taxtotum\\Libs\\TaxStrategy\\AbstractTaxStrategy -->
<g id="edge6" class="edge"><title>\\VoidInsight\\Taxtotum\\Libs\\TaxStrategy\\ZeroTaxStrategy&#45;&gt;\\VoidInsight\\Taxtotum\\Libs\\TaxStrategy\\AbstractTaxStrategy</title>
<path fill="none" stroke="black" d="M534.026,-307.923C503.051,-295.743 462.029,-279.613 429.274,-266.734"/>
<polygon fill="none" stroke="black" points="430.421,-263.424 419.833,-263.022 427.859,-269.939 430.421,-263.424"/>
</g>
<!-- \\VoidInsight\\Taxtotum\\Libs\\TaxStrategy\\FixedTaxStrategy -->
<g id="node4" class="node"><title>\\VoidInsight\\Taxtotum\\Libs\\TaxStrategy\\FixedTaxStrategy</title>
<polygon fill="none" stroke="black" points="643.5,-290 518.5,-290 518.5,-254 643.5,-254 643.5,-290"/>
<text text-anchor="middle" x="581" y="-269.2" font-family="Courier,monospace" font-size="11.00">FixedTaxStrategy</text>
</g>
<!-- \\VoidInsight\\Taxtotum\\Libs\\TaxStrategy\\FixedTaxStrategy&#45;&gt;\\VoidInsight\\Taxtotum\\Libs\\TaxStrategy\\AbstractTaxStrategy -->
<g id="edge7" class="edge"><title>\\VoidInsight\\Taxtotum\\Libs\\TaxStrategy\\FixedTaxStrategy&#45;&gt;\\VoidInsight\\Taxtotum\\Libs\\TaxStrategy\\AbstractTaxStrategy</title>
<path fill="none" stroke="black" d="M518.472,-263.936C498.808,-261.358 476.724,-258.464 455.85,-255.728"/>
<polygon fill="none" stroke="black" points="456.086,-252.229 445.716,-254.4 455.176,-259.17 456.086,-252.229"/>
</g>
<!-- \\VoidInsight\\Taxtotum\\Libs\\TaxStrategy\\DummyTaxStrategy -->
<g id="node5" class="node"><title>\\VoidInsight\\Taxtotum\\Libs\\TaxStrategy\\DummyTaxStrategy</title>
<polygon fill="none" stroke="black" points="643.5,-236 518.5,-236 518.5,-200 643.5,-200 643.5,-236"/>
<text text-anchor="middle" x="581" y="-215.2" font-family="Courier,monospace" font-size="11.00">DummyTaxStrategy</text>
</g>
<!-- \\VoidInsight\\Taxtotum\\Libs\\TaxStrategy\\DummyTaxStrategy&#45;&gt;\\VoidInsight\\Taxtotum\\Libs\\TaxStrategy\\AbstractTaxStrategy -->
<g id="edge9" class="edge"><title>\\VoidInsight\\Taxtotum\\Libs\\TaxStrategy\\DummyTaxStrategy&#45;&gt;\\VoidInsight\\Taxtotum\\Libs\\TaxStrategy\\AbstractTaxStrategy</title>
<path fill="none" stroke="black" d="M518.472,-226.064C498.808,-228.642 476.724,-231.536 455.85,-234.272"/>
<polygon fill="none" stroke="black" points="455.176,-230.83 445.716,-235.6 456.086,-237.771 455.176,-230.83"/>
</g>
<!-- \\VoidInsight\\Taxtotum\\Libs\\TaxStrategy\\RatioWithLimitTaxStrategy -->
<g id="node6" class="node"><title>\\VoidInsight\\Taxtotum\\Libs\\TaxStrategy\\RatioWithLimitTaxStrategy</title>
<polygon fill="none" stroke="black" points="901.5,-182 716.5,-182 716.5,-146 901.5,-146 901.5,-182"/>
<text text-anchor="middle" x="809" y="-161.2" font-family="Courier,monospace" font-size="11.00">RatioWithLimitTaxStrategy</text>
</g>
<!-- \\VoidInsight\\Taxtotum\\Libs\\TaxStrategy\\RatioWithLimitTaxStrategy&#45;&gt;\\VoidInsight\\Taxtotum\\Libs\\TaxStrategy\\RatioTaxStrategy -->
<g id="edge10" class="edge"><title>\\VoidInsight\\Taxtotum\\Libs\\TaxStrategy\\RatioWithLimitTaxStrategy&#45;&gt;\\VoidInsight\\Taxtotum\\Libs\\TaxStrategy\\RatioTaxStrategy</title>
<path fill="none" stroke="black" d="M716.403,-164C695.564,-164 673.717,-164 653.839,-164"/>
<polygon fill="none" stroke="black" points="653.639,-160.5 643.639,-164 653.639,-167.5 653.639,-160.5"/>
</g>
<!-- \\VoidInsight\\Taxtotum\\Libs\\AbstractTax -->
<g id="node9" class="node"><title>\\VoidInsight\\Taxtotum\\Libs\\AbstractTax</title>
<polygon fill="none" stroke="black" points="626.5,-102 535.5,-102 535.5,-66 626.5,-66 626.5,-102"/>
<text text-anchor="start" x="547" y="-87.2" font-family="Courier,monospace" font-size="11.00">«abstract»</text>
<text text-anchor="start" x="543.5" y="-75.2" font-family="Courier,monospace" font-size="11.00">AbstractTax</text>
</g>
<!-- \\VoidInsight\\Taxtotum\\Libs\\TaxInterface -->
<g id="node11" class="node"><title>\\VoidInsight\\Taxtotum\\Libs\\TaxInterface</title>
<polygon fill="none" stroke="black" points="422,-76 324,-76 324,-40 422,-40 422,-76"/>
<text text-anchor="middle" x="373" y="-55.2" font-family="Courier,monospace" font-size="11.00">TaxInterface</text>
</g>
<!-- \\VoidInsight\\Taxtotum\\Libs\\AbstractTax&#45;&gt;\\VoidInsight\\Taxtotum\\Libs\\TaxInterface -->
<g id="edge2" class="edge"><title>\\VoidInsight\\Taxtotum\\Libs\\AbstractTax&#45;&gt;\\VoidInsight\\Taxtotum\\Libs\\TaxInterface</title>
<path fill="none" stroke="black" stroke-dasharray="1,5" d="M535.301,-78.3584C505.19,-74.558 465.167,-69.5065 432.522,-65.3863"/>
<polygon fill="none" stroke="black" points="432.564,-61.8639 422.204,-64.084 431.687,-68.8088 432.564,-61.8639"/>
</g>
<!-- \\VoidInsight\\Taxtotum\\Libs\\TaxConfInterface -->
<g id="node12" class="node"><title>\\VoidInsight\\Taxtotum\\Libs\\TaxConfInterface</title>
<polygon fill="none" stroke="black" points="435.5,-130 310.5,-130 310.5,-94 435.5,-94 435.5,-130"/>
<text text-anchor="middle" x="373" y="-109.2" font-family="Courier,monospace" font-size="11.00">TaxConfInterface</text>
</g>
<!-- \\VoidInsight\\Taxtotum\\Libs\\AbstractTax&#45;&gt;\\VoidInsight\\Taxtotum\\Libs\\TaxConfInterface -->
<g id="edge3" class="edge"><title>\\VoidInsight\\Taxtotum\\Libs\\AbstractTax&#45;&gt;\\VoidInsight\\Taxtotum\\Libs\\TaxConfInterface</title>
<path fill="none" stroke="black" stroke-dasharray="1,5" d="M535.301,-90.0756C509.148,-93.6304 475.517,-98.2016 445.737,-102.249"/>
<polygon fill="none" stroke="black" points="445.24,-98.7846 435.802,-103.6 446.183,-105.721 445.24,-98.7846"/>
</g>
<!-- \\VoidInsight\\Taxtotum\\Libs\\Tax -->
<g id="node10" class="node"><title>\\VoidInsight\\Taxtotum\\Libs\\Tax</title>
<polygon fill="none" stroke="black" points="836,-102 782,-102 782,-66 836,-66 836,-102"/>
<text text-anchor="middle" x="809" y="-81.2" font-family="Courier,monospace" font-size="11.00">Tax</text>
</g>
<!-- \\VoidInsight\\Taxtotum\\Libs\\Tax&#45;&gt;\\VoidInsight\\Taxtotum\\Libs\\AbstractTax -->
<g id="edge8" class="edge"><title>\\VoidInsight\\Taxtotum\\Libs\\Tax&#45;&gt;\\VoidInsight\\Taxtotum\\Libs\\AbstractTax</title>
<path fill="none" stroke="black" d="M781.633,-84C746.343,-84 682.88,-84 636.965,-84"/>
<polygon fill="none" stroke="black" points="636.868,-80.5001 626.868,-84 636.868,-87.5001 636.868,-80.5001"/>
</g>
</g>
</svg>
