<?xml version="1.0" encoding="UTF-8" standalone="no"?>
<!DOCTYPE svg PUBLIC "-//W3C//DTD SVG 1.1//EN"
 "http://www.w3.org/Graphics/SVG/1.1/DTD/svg11.dtd">
<!-- Generated by graphviz version 2.36.0 (20140111.2315)
 -->
<!-- Title: G Pages: 1 -->
<svg width="1038pt" height="446pt"
 viewBox="0.00 0.00 1038.00 446.00" xmlns="http://www.w3.org/2000/svg" xmlns:xlink="http://www.w3.org/1999/xlink">
<g id="graph0" class="graph" transform="scale(1 1) rotate(0) translate(4 442)">
<title>G</title>
<polygon fill="white" stroke="none" points="-4,4 -4,-442 1034,-442 1034,4 -4,4"/>
<g id="clust1" class="cluster"><title>cluster_Global</title>
<path fill="none" stroke="gray" d="M20,-8C20,-8 1010,-8 1010,-8 1016,-8 1022,-14 1022,-20 1022,-20 1022,-418 1022,-418 1022,-424 1016,-430 1010,-430 1010,-430 20,-430 20,-430 14,-430 8,-424 8,-418 8,-418 8,-20 8,-20 8,-14 14,-8 20,-8"/>
<text text-anchor="middle" x="515" y="-417.2" font-family="Times,serif" font-size="11.00" fill="gray">Global</text>
</g>
<g id="clust2" class="cluster"><title>cluster_\VoidInsight</title>
<path fill="none" stroke="gray" d="M28,-16C28,-16 1002,-16 1002,-16 1008,-16 1014,-22 1014,-28 1014,-28 1014,-390 1014,-390 1014,-396 1008,-402 1002,-402 1002,-402 28,-402 28,-402 22,-402 16,-396 16,-390 16,-390 16,-28 16,-28 16,-22 22,-16 28,-16"/>
<text text-anchor="middle" x="515" y="-389.2" font-family="Times,serif" font-size="11.00" fill="gray">VoidInsight</text>
</g>
<g id="clust3" class="cluster"><title>cluster_\VoidInsight\Taxtotum</title>
<path fill="none" stroke="gray" d="M36,-24C36,-24 994,-24 994,-24 1000,-24 1006,-30 1006,-36 1006,-36 1006,-362 1006,-362 1006,-368 1000,-374 994,-374 994,-374 36,-374 36,-374 30,-374 24,-368 24,-362 24,-362 24,-36 24,-36 24,-30 30,-24 36,-24"/>
<text text-anchor="middle" x="515" y="-361.2" font-family="Times,serif" font-size="11.00" fill="gray">Taxtotum</text>
</g>
<g id="clust4" class="cluster"><title>cluster_\VoidInsight\Taxtotum\Libs</title>
<path fill="none" stroke="gray" d="M44,-32C44,-32 986,-32 986,-32 992,-32 998,-38 998,-44 998,-44 998,-334 998,-334 998,-340 992,-346 986,-346 986,-346 44,-346 44,-346 38,-346 32,-340 32,-334 32,-334 32,-44 32,-44 32,-38 38,-32 44,-32"/>
<text text-anchor="middle" x="515" y="-333.2" font-family="Times,serif" font-size="11.00" fill="gray">Libs</text>
</g>
<g id="clust5" class="cluster"><title>cluster_\VoidInsight\Taxtotum\Libs\TaxStrategy</title>
<path fill="none" stroke="gray" d="M52,-138C52,-138 978,-138 978,-138 984,-138 990,-144 990,-150 990,-150 990,-306 990,-306 990,-312 984,-318 978,-318 978,-318 52,-318 52,-318 46,-318 40,-312 40,-306 40,-306 40,-150 40,-150 40,-144 46,-138 52,-138"/>
<text text-anchor="middle" x="515" y="-305.2" font-family="Times,serif" font-size="11.00" fill="gray">TaxStrategy</text>
</g>
<!-- \\VoidInsight\\Taxtotum\\Libs\\TaxStrategy\\RatioTaxStrategy -->
<g id="node1" class="node"><title>\\VoidInsight\\Taxtotum\\Libs\\TaxStrategy\\RatioTaxStrategy</title>
<polygon fill="none" stroke="black" points="683.5,-290 558.5,-290 558.5,-254 683.5,-254 683.5,-290"/>
<text text-anchor="middle" x="621" y="-269.2" font-family="Courier,monospace" font-size="11.00">RatioTaxStrategy</text>
</g>
<!-- \\VoidInsight\\Taxtotum\\Libs\\TaxStrategy\\AbstractTaxStrategy -->
<g id="node2" class="node"><title>\\VoidInsight\\Taxtotum\\Libs\\TaxStrategy\\AbstractTaxStrategy</title>
<polygon fill="none" stroke="black" points="445.5,-236 300.5,-236 300.5,-200 445.5,-200 445.5,-236"/>
<text text-anchor="start" x="339" y="-221.2" font-family="Courier,monospace" font-size="11.00">«abstract»</text>
<text text-anchor="start" x="308.5" y="-209.2" font-family="Courier,monospace" font-size="11.00">AbstractTaxStrategy</text>
</g>
<!-- \\VoidInsight\\Taxtotum\\Libs\\TaxStrategy\\RatioTaxStrategy&#45;&gt;\\VoidInsight\\Taxtotum\\Libs\\TaxStrategy\\AbstractTaxStrategy -->
<g id="edge1" class="edge"><title>\\VoidInsight\\Taxtotum\\Libs\\TaxStrategy\\RatioTaxStrategy&#45;&gt;\\VoidInsight\\Taxtotum\\Libs\\TaxStrategy\\AbstractTaxStrategy</title>
<path fill="none" stroke="black" d="M558.241,-258.443C527.286,-251.648 489.382,-243.328 456.02,-236.004"/>
<polygon fill="none" stroke="black" points="456.343,-232.492 445.825,-233.766 454.842,-239.329 456.343,-232.492"/>
</g>
<!-- \\VoidInsight\\Taxtotum\\Libs\\TaxStrategy\\TaxStrategyInterface -->
<g id="node6" class="node"><title>\\VoidInsight\\Taxtotum\\Libs\\TaxStrategy\\TaxStrategyInterface</title>
<polygon fill="none" stroke="black" points="214,-209 62,-209 62,-173 214,-173 214,-209"/>
<text text-anchor="middle" x="138" y="-188.2" font-family="Courier,monospace" font-size="11.00">TaxStrategyInterface</text>
</g>
<!-- \\VoidInsight\\Taxtotum\\Libs\\TaxStrategy\\AbstractTaxStrategy&#45;&gt;\\VoidInsight\\Taxtotum\\Libs\\TaxStrategy\\TaxStrategyInterface -->
<g id="edge4" class="edge"><title>\\VoidInsight\\Taxtotum\\Libs\\TaxStrategy\\AbstractTaxStrategy&#45;&gt;\\VoidInsight\\Taxtotum\\Libs\\TaxStrategy\\TaxStrategyInterface</title>
<path fill="none" stroke="black" stroke-dasharray="1,5" d="M300.191,-209.679C276.217,-206.901 249.266,-203.778 224.364,-200.892"/>
<polygon fill="none" stroke="black" points="224.537,-197.389 214.201,-199.714 223.732,-204.342 224.537,-197.389"/>
</g>
<!-- \\VoidInsight\\Taxtotum\\Libs\\TaxStrategy\\TaxStrategyConfInterface -->
<g id="node7" class="node"><title>\\VoidInsight\\Taxtotum\\Libs\\TaxStrategy\\TaxStrategyConfInterface</title>
<polygon fill="none" stroke="black" points="227.5,-263 48.5,-263 48.5,-227 227.5,-227 227.5,-263"/>
<text text-anchor="middle" x="138" y="-242.2" font-family="Courier,monospace" font-size="11.00">TaxStrategyConfInterface</text>
</g>
<!-- \\VoidInsight\\Taxtotum\\Libs\\TaxStrategy\\AbstractTaxStrategy&#45;&gt;\\VoidInsight\\Taxtotum\\Libs\\TaxStrategy\\TaxStrategyConfInterface -->
<g id="edge5" class="edge"><title>\\VoidInsight\\Taxtotum\\Libs\\TaxStrategy\\AbstractTaxStrategy&#45;&gt;\\VoidInsight\\Taxtotum\\Libs\\TaxStrategy\\TaxStrategyConfInterface</title>
<path fill="none" stroke="black" stroke-dasharray="1,5" d="M300.191,-226.321C280.542,-228.598 258.893,-231.107 238.011,-233.527"/>
<polygon fill="none" stroke="black" points="237.364,-230.078 227.834,-234.706 238.17,-237.032 237.364,-230.078"/>
</g>
<!-- \\VoidInsight\\Taxtotum\\Libs\\TaxStrategy\\LimitDecoratorTaxStrategy -->
<g id="node3" class="node"><title>\\VoidInsight\\Taxtotum\\Libs\\TaxStrategy\\LimitDecoratorTaxStrategy</title>
<polygon fill="none" stroke="black" points="981.5,-236 796.5,-236 796.5,-200 981.5,-200 981.5,-236"/>
<text text-anchor="middle" x="889" y="-215.2" font-family="Courier,monospace" font-size="11.00">LimitDecoratorTaxStrategy</text>
</g>
<!-- \\VoidInsight\\Taxtotum\\Libs\\TaxStrategy\\AbstractDecoratorTaxStrategy -->
<g id="node5" class="node"><title>\\VoidInsight\\Taxtotum\\Libs\\TaxStrategy\\AbstractDecoratorTaxStrategy</title>
<polygon fill="none" stroke="black" points="724,-236 518,-236 518,-200 724,-200 724,-236"/>
<text text-anchor="start" x="587" y="-221.2" font-family="Courier,monospace" font-size="11.00">«abstract»</text>
<text text-anchor="start" x="526" y="-209.2" font-family="Courier,monospace" font-size="11.00">AbstractDecoratorTaxStrategy</text>
</g>
<!-- \\VoidInsight\\Taxtotum\\Libs\\TaxStrategy\\LimitDecoratorTaxStrategy&#45;&gt;\\VoidInsight\\Taxtotum\\Libs\\TaxStrategy\\AbstractDecoratorTaxStrategy -->
<g id="edge6" class="edge"><title>\\VoidInsight\\Taxtotum\\Libs\\TaxStrategy\\LimitDecoratorTaxStrategy&#45;&gt;\\VoidInsight\\Taxtotum\\Libs\\TaxStrategy\\AbstractDecoratorTaxStrategy</title>
<path fill="none" stroke="black" d="M796.458,-218C776.44,-218 755.03,-218 734.307,-218"/>
<polygon fill="none" stroke="black" points="734.198,-214.5 724.198,-218 734.198,-221.5 734.198,-214.5"/>
</g>
<!-- \\VoidInsight\\Taxtotum\\Libs\\TaxStrategy\\FixedTaxStrategy -->
<g id="node4" class="node"><title>\\VoidInsight\\Taxtotum\\Libs\\TaxStrategy\\FixedTaxStrategy</title>
<polygon fill="none" stroke="black" points="683.5,-182 558.5,-182 558.5,-146 683.5,-146 683.5,-182"/>
<text text-anchor="middle" x="621" y="-161.2" font-family="Courier,monospace" font-size="11.00">FixedTaxStrategy</text>
</g>
<!-- \\VoidInsight\\Taxtotum\\Libs\\TaxStrategy\\FixedTaxStrategy&#45;&gt;\\VoidInsight\\Taxtotum\\Libs\\TaxStrategy\\AbstractTaxStrategy -->
<g id="edge7" class="edge"><title>\\VoidInsight\\Taxtotum\\Libs\\TaxStrategy\\FixedTaxStrategy&#45;&gt;\\VoidInsight\\Taxtotum\\Libs\\TaxStrategy\\AbstractTaxStrategy</title>
<path fill="none" stroke="black" d="M558.241,-177.557C527.286,-184.352 489.382,-192.672 456.02,-199.996"/>
<polygon fill="none" stroke="black" points="454.842,-196.671 445.825,-202.234 456.343,-203.508 454.842,-196.671"/>
</g>
<!-- \\VoidInsight\\Taxtotum\\Libs\\TaxStrategy\\AbstractDecoratorTaxStrategy&#45;&gt;\\VoidInsight\\Taxtotum\\Libs\\TaxStrategy\\AbstractTaxStrategy -->
<g id="edge9" class="edge"><title>\\VoidInsight\\Taxtotum\\Libs\\TaxStrategy\\AbstractDecoratorTaxStrategy&#45;&gt;\\VoidInsight\\Taxtotum\\Libs\\TaxStrategy\\AbstractTaxStrategy</title>
<path fill="none" stroke="black" d="M517.811,-218C497.127,-218 475.634,-218 455.765,-218"/>
<polygon fill="none" stroke="black" points="455.536,-214.5 445.536,-218 455.535,-221.5 455.536,-214.5"/>
</g>
<!-- \\VoidInsight\\Taxtotum\\Libs\\AbstractTax -->
<g id="node8" class="node"><title>\\VoidInsight\\Taxtotum\\Libs\\AbstractTax</title>
<polygon fill="none" stroke="black" points="666.5,-102 575.5,-102 575.5,-66 666.5,-66 666.5,-102"/>
<text text-anchor="start" x="587" y="-87.2" font-family="Courier,monospace" font-size="11.00">«abstract»</text>
<text text-anchor="start" x="583.5" y="-75.2" font-family="Courier,monospace" font-size="11.00">AbstractTax</text>
</g>
<!-- \\VoidInsight\\Taxtotum\\Libs\\TaxInterface -->
<g id="node10" class="node"><title>\\VoidInsight\\Taxtotum\\Libs\\TaxInterface</title>
<polygon fill="none" stroke="black" points="422,-76 324,-76 324,-40 422,-40 422,-76"/>
<text text-anchor="middle" x="373" y="-55.2" font-family="Courier,monospace" font-size="11.00">TaxInterface</text>
</g>
<!-- \\VoidInsight\\Taxtotum\\Libs\\AbstractTax&#45;&gt;\\VoidInsight\\Taxtotum\\Libs\\TaxInterface -->
<g id="edge2" class="edge"><title>\\VoidInsight\\Taxtotum\\Libs\\AbstractTax&#45;&gt;\\VoidInsight\\Taxtotum\\Libs\\TaxInterface</title>
<path fill="none" stroke="black" stroke-dasharray="1,5" d="M575.451,-79.2916C535.246,-75.0422 475.847,-68.7643 431.958,-64.1256"/>
<polygon fill="none" stroke="black" points="432.313,-60.6437 422,-63.0732 431.577,-67.605 432.313,-60.6437"/>
</g>
<!-- \\VoidInsight\\Taxtotum\\Libs\\TaxConfInterface -->
<g id="node11" class="node"><title>\\VoidInsight\\Taxtotum\\Libs\\TaxConfInterface</title>
<polygon fill="none" stroke="black" points="435.5,-130 310.5,-130 310.5,-94 435.5,-94 435.5,-130"/>
<text text-anchor="middle" x="373" y="-109.2" font-family="Courier,monospace" font-size="11.00">TaxConfInterface</text>
</g>
<!-- \\VoidInsight\\Taxtotum\\Libs\\AbstractTax&#45;&gt;\\VoidInsight\\Taxtotum\\Libs\\TaxConfInterface -->
<g id="edge3" class="edge"><title>\\VoidInsight\\Taxtotum\\Libs\\AbstractTax&#45;&gt;\\VoidInsight\\Taxtotum\\Libs\\TaxConfInterface</title>
<path fill="none" stroke="black" stroke-dasharray="1,5" d="M575.451,-89.0706C539.38,-93.1762 487.86,-99.0403 445.952,-103.81"/>
<polygon fill="none" stroke="black" points="445.336,-100.358 435.796,-104.966 446.128,-107.313 445.336,-100.358"/>
</g>
<!-- \\VoidInsight\\Taxtotum\\Libs\\Tax -->
<g id="node9" class="node"><title>\\VoidInsight\\Taxtotum\\Libs\\Tax</title>
<polygon fill="none" stroke="black" points="916,-102 862,-102 862,-66 916,-66 916,-102"/>
<text text-anchor="middle" x="889" y="-81.2" font-family="Courier,monospace" font-size="11.00">Tax</text>
</g>
<!-- \\VoidInsight\\Taxtotum\\Libs\\Tax&#45;&gt;\\VoidInsight\\Taxtotum\\Libs\\AbstractTax -->
<g id="edge8" class="edge"><title>\\VoidInsight\\Taxtotum\\Libs\\Tax&#45;&gt;\\VoidInsight\\Taxtotum\\Libs\\AbstractTax</title>
<path fill="none" stroke="black" d="M861.522,-84C818.719,-84 733.435,-84 677.046,-84"/>
<polygon fill="none" stroke="black" points="676.869,-80.5001 666.869,-84 676.869,-87.5001 676.869,-80.5001"/>
</g>
</g>
</svg>
