<?xml version="1.0" encoding="UTF-8" standalone="no"?>
<!DOCTYPE svg PUBLIC "-//W3C//DTD SVG 1.1//EN"
 "http://www.w3.org/Graphics/SVG/1.1/DTD/svg11.dtd">
<!-- Generated by graphviz version 2.36.0 (20140111.2315)
 -->
<!-- Title: G Pages: 1 -->
<svg width="1052pt" height="556pt"
 viewBox="0.00 0.00 1052.00 556.00" xmlns="http://www.w3.org/2000/svg" xmlns:xlink="http://www.w3.org/1999/xlink">
<g id="graph0" class="graph" transform="scale(1 1) rotate(0) translate(4 552)">
<title>G</title>
<polygon fill="white" stroke="none" points="-4,4 -4,-552 1048,-552 1048,4 -4,4"/>
<g id="clust1" class="cluster"><title>cluster_Global</title>
<path fill="none" stroke="gray" d="M20,-8C20,-8 1024,-8 1024,-8 1030,-8 1036,-14 1036,-20 1036,-20 1036,-528 1036,-528 1036,-534 1030,-540 1024,-540 1024,-540 20,-540 20,-540 14,-540 8,-534 8,-528 8,-528 8,-20 8,-20 8,-14 14,-8 20,-8"/>
<text text-anchor="middle" x="522" y="-527.2" font-family="Times,serif" font-size="11.00" fill="gray">Global</text>
</g>
<g id="clust2" class="cluster"><title>cluster_\VoidInsight</title>
<path fill="none" stroke="gray" d="M28,-16C28,-16 1016,-16 1016,-16 1022,-16 1028,-22 1028,-28 1028,-28 1028,-500 1028,-500 1028,-506 1022,-512 1016,-512 1016,-512 28,-512 28,-512 22,-512 16,-506 16,-500 16,-500 16,-28 16,-28 16,-22 22,-16 28,-16"/>
<text text-anchor="middle" x="522" y="-499.2" font-family="Times,serif" font-size="11.00" fill="gray">VoidInsight</text>
</g>
<g id="clust3" class="cluster"><title>cluster_\VoidInsight\Taxtotum</title>
<path fill="none" stroke="gray" d="M36,-24C36,-24 1008,-24 1008,-24 1014,-24 1020,-30 1020,-36 1020,-36 1020,-472 1020,-472 1020,-478 1014,-484 1008,-484 1008,-484 36,-484 36,-484 30,-484 24,-478 24,-472 24,-472 24,-36 24,-36 24,-30 30,-24 36,-24"/>
<text text-anchor="middle" x="522" y="-471.2" font-family="Times,serif" font-size="11.00" fill="gray">Taxtotum</text>
</g>
<g id="clust4" class="cluster"><title>cluster_\VoidInsight\Taxtotum\Libs</title>
<path fill="none" stroke="gray" d="M44,-32C44,-32 1000,-32 1000,-32 1006,-32 1012,-38 1012,-44 1012,-44 1012,-444 1012,-444 1012,-450 1006,-456 1000,-456 1000,-456 44,-456 44,-456 38,-456 32,-450 32,-444 32,-444 32,-44 32,-44 32,-38 38,-32 44,-32"/>
<text text-anchor="middle" x="522" y="-443.2" font-family="Times,serif" font-size="11.00" fill="gray">Libs</text>
</g>
<g id="clust5" class="cluster"><title>cluster_\VoidInsight\Taxtotum\Libs\TaxStrategy</title>
<path fill="none" stroke="gray" d="M52,-166C52,-166 992,-166 992,-166 998,-166 1004,-172 1004,-178 1004,-178 1004,-416 1004,-416 1004,-422 998,-428 992,-428 992,-428 52,-428 52,-428 46,-428 40,-422 40,-416 40,-416 40,-178 40,-178 40,-172 46,-166 52,-166"/>
<text text-anchor="middle" x="522" y="-415.2" font-family="Times,serif" font-size="11.00" fill="gray">TaxStrategy</text>
</g>
<g id="clust6" class="cluster"><title>cluster_\VoidInsight\Taxtotum\Libs\TaxStrategy\TaxStrategyData</title>
<path fill="none" stroke="gray" d="M535,-328C535,-328 951,-328 951,-328 957,-328 963,-334 963,-340 963,-340 963,-388 963,-388 963,-394 957,-400 951,-400 951,-400 535,-400 535,-400 529,-400 523,-394 523,-388 523,-388 523,-340 523,-340 523,-334 529,-328 535,-328"/>
<text text-anchor="middle" x="743" y="-387.2" font-family="Times,serif" font-size="11.00" fill="gray">TaxStrategyData</text>
</g>
<g id="clust7" class="cluster"><title>cluster_\VoidInsight\Taxtotum\Libs\TaxData</title>
<path fill="none" stroke="gray" d="M562,-86C562,-86 924,-86 924,-86 930,-86 936,-92 936,-98 936,-98 936,-146 936,-146 936,-152 930,-158 924,-158 924,-158 562,-158 562,-158 556,-158 550,-152 550,-146 550,-146 550,-98 550,-98 550,-92 556,-86 562,-86"/>
<text text-anchor="middle" x="743" y="-145.2" font-family="Times,serif" font-size="11.00" fill="gray">TaxData</text>
</g>
<!-- \\VoidInsight\\Taxtotum\\Libs\\TaxStrategy\\TaxStrategyData\\TaxStrategyData -->
<g id="node1" class="node"><title>\\VoidInsight\\Taxtotum\\Libs\\TaxStrategy\\TaxStrategyData\\TaxStrategyData</title>
<polygon fill="none" stroke="black" points="955,-372 837,-372 837,-336 955,-336 955,-372"/>
<text text-anchor="middle" x="896" y="-351.2" font-family="Courier,monospace" font-size="11.00">TaxStrategyData</text>
</g>
<!-- \\VoidInsight\\Taxtotum\\Libs\\TaxStrategy\\TaxStrategyData\\TaxStrategyDataInterface -->
<g id="node2" class="node"><title>\\VoidInsight\\Taxtotum\\Libs\\TaxStrategy\\TaxStrategyData\\TaxStrategyDataInterface</title>
<polygon fill="none" stroke="black" points="710.5,-372 531.5,-372 531.5,-336 710.5,-336 710.5,-372"/>
<text text-anchor="middle" x="621" y="-351.2" font-family="Courier,monospace" font-size="11.00">TaxStrategyDataInterface</text>
</g>
<!-- \\VoidInsight\\Taxtotum\\Libs\\TaxStrategy\\TaxStrategyData\\TaxStrategyData&#45;&gt;\\VoidInsight\\Taxtotum\\Libs\\TaxStrategy\\TaxStrategyData\\TaxStrategyDataInterface -->
<g id="edge6" class="edge"><title>\\VoidInsight\\Taxtotum\\Libs\\TaxStrategy\\TaxStrategyData\\TaxStrategyData&#45;&gt;\\VoidInsight\\Taxtotum\\Libs\\TaxStrategy\\TaxStrategyData\\TaxStrategyDataInterface</title>
<path fill="none" stroke="black" stroke-dasharray="1,5" d="M836.77,-354C803.06,-354 759.732,-354 720.832,-354"/>
<polygon fill="none" stroke="black" points="720.519,-350.5 710.519,-354 720.519,-357.5 720.519,-350.5"/>
</g>
<!-- \\VoidInsight\\Taxtotum\\Libs\\TaxStrategy\\MinimumDecoratorTaxStrategy -->
<g id="node3" class="node"><title>\\VoidInsight\\Taxtotum\\Libs\\TaxStrategy\\MinimumDecoratorTaxStrategy</title>
<polygon fill="none" stroke="black" points="995.5,-291 796.5,-291 796.5,-255 995.5,-255 995.5,-291"/>
<text text-anchor="middle" x="896" y="-270.2" font-family="Courier,monospace" font-size="11.00">MinimumDecoratorTaxStrategy</text>
</g>
<!-- \\VoidInsight\\Taxtotum\\Libs\\TaxStrategy\\AbstractDecoratorTaxStrategy -->
<g id="node8" class="node"><title>\\VoidInsight\\Taxtotum\\Libs\\TaxStrategy\\AbstractDecoratorTaxStrategy</title>
<polygon fill="none" stroke="black" points="724,-264 518,-264 518,-228 724,-228 724,-264"/>
<text text-anchor="start" x="587" y="-249.2" font-family="Courier,monospace" font-size="11.00">«abstract»</text>
<text text-anchor="start" x="526" y="-237.2" font-family="Courier,monospace" font-size="11.00">AbstractDecoratorTaxStrategy</text>
</g>
<!-- \\VoidInsight\\Taxtotum\\Libs\\TaxStrategy\\MinimumDecoratorTaxStrategy&#45;&gt;\\VoidInsight\\Taxtotum\\Libs\\TaxStrategy\\AbstractDecoratorTaxStrategy -->
<g id="edge1" class="edge"><title>\\VoidInsight\\Taxtotum\\Libs\\TaxStrategy\\MinimumDecoratorTaxStrategy&#45;&gt;\\VoidInsight\\Taxtotum\\Libs\\TaxStrategy\\AbstractDecoratorTaxStrategy</title>
<path fill="none" stroke="black" d="M796.441,-263.252C776.228,-261.253 754.809,-259.135 734.159,-257.093"/>
<polygon fill="none" stroke="black" points="734.388,-253.598 724.092,-256.097 733.699,-260.564 734.388,-253.598"/>
</g>
<!-- \\VoidInsight\\Taxtotum\\Libs\\TaxStrategy\\RatioTaxStrategy -->
<g id="node4" class="node"><title>\\VoidInsight\\Taxtotum\\Libs\\TaxStrategy\\RatioTaxStrategy</title>
<polygon fill="none" stroke="black" points="683.5,-318 558.5,-318 558.5,-282 683.5,-282 683.5,-318"/>
<text text-anchor="middle" x="621" y="-297.2" font-family="Courier,monospace" font-size="11.00">RatioTaxStrategy</text>
</g>
<!-- \\VoidInsight\\Taxtotum\\Libs\\TaxStrategy\\AbstractTaxStrategy -->
<g id="node6" class="node"><title>\\VoidInsight\\Taxtotum\\Libs\\TaxStrategy\\AbstractTaxStrategy</title>
<polygon fill="none" stroke="black" points="445.5,-264 300.5,-264 300.5,-228 445.5,-228 445.5,-264"/>
<text text-anchor="start" x="339" y="-249.2" font-family="Courier,monospace" font-size="11.00">«abstract»</text>
<text text-anchor="start" x="308.5" y="-237.2" font-family="Courier,monospace" font-size="11.00">AbstractTaxStrategy</text>
</g>
<!-- \\VoidInsight\\Taxtotum\\Libs\\TaxStrategy\\RatioTaxStrategy&#45;&gt;\\VoidInsight\\Taxtotum\\Libs\\TaxStrategy\\AbstractTaxStrategy -->
<g id="edge2" class="edge"><title>\\VoidInsight\\Taxtotum\\Libs\\TaxStrategy\\RatioTaxStrategy&#45;&gt;\\VoidInsight\\Taxtotum\\Libs\\TaxStrategy\\AbstractTaxStrategy</title>
<path fill="none" stroke="black" d="M558.241,-286.443C527.286,-279.648 489.382,-271.328 456.02,-264.004"/>
<polygon fill="none" stroke="black" points="456.343,-260.492 445.825,-261.766 454.842,-267.329 456.343,-260.492"/>
</g>
<!-- \\VoidInsight\\Taxtotum\\Libs\\TaxStrategy\\MaximumDecoratorTaxStrategy -->
<g id="node5" class="node"><title>\\VoidInsight\\Taxtotum\\Libs\\TaxStrategy\\MaximumDecoratorTaxStrategy</title>
<polygon fill="none" stroke="black" points="995.5,-237 796.5,-237 796.5,-201 995.5,-201 995.5,-237"/>
<text text-anchor="middle" x="896" y="-216.2" font-family="Courier,monospace" font-size="11.00">MaximumDecoratorTaxStrategy</text>
</g>
<!-- \\VoidInsight\\Taxtotum\\Libs\\TaxStrategy\\MaximumDecoratorTaxStrategy&#45;&gt;\\VoidInsight\\Taxtotum\\Libs\\TaxStrategy\\AbstractDecoratorTaxStrategy -->
<g id="edge3" class="edge"><title>\\VoidInsight\\Taxtotum\\Libs\\TaxStrategy\\MaximumDecoratorTaxStrategy&#45;&gt;\\VoidInsight\\Taxtotum\\Libs\\TaxStrategy\\AbstractDecoratorTaxStrategy</title>
<path fill="none" stroke="black" d="M796.441,-228.748C776.228,-230.747 754.809,-232.865 734.159,-234.907"/>
<polygon fill="none" stroke="black" points="733.699,-231.436 724.092,-235.903 734.388,-238.402 733.699,-231.436"/>
</g>
<!-- \\VoidInsight\\Taxtotum\\Libs\\TaxStrategy\\TaxStrategyInterface -->
<g id="node9" class="node"><title>\\VoidInsight\\Taxtotum\\Libs\\TaxStrategy\\TaxStrategyInterface</title>
<polygon fill="none" stroke="black" points="214,-237 62,-237 62,-201 214,-201 214,-237"/>
<text text-anchor="middle" x="138" y="-216.2" font-family="Courier,monospace" font-size="11.00">TaxStrategyInterface</text>
</g>
<!-- \\VoidInsight\\Taxtotum\\Libs\\TaxStrategy\\AbstractTaxStrategy&#45;&gt;\\VoidInsight\\Taxtotum\\Libs\\TaxStrategy\\TaxStrategyInterface -->
<g id="edge7" class="edge"><title>\\VoidInsight\\Taxtotum\\Libs\\TaxStrategy\\AbstractTaxStrategy&#45;&gt;\\VoidInsight\\Taxtotum\\Libs\\TaxStrategy\\TaxStrategyInterface</title>
<path fill="none" stroke="black" stroke-dasharray="1,5" d="M300.191,-237.679C276.217,-234.901 249.266,-231.778 224.364,-228.892"/>
<polygon fill="none" stroke="black" points="224.537,-225.389 214.201,-227.714 223.732,-232.342 224.537,-225.389"/>
</g>
<!-- \\VoidInsight\\Taxtotum\\Libs\\TaxStrategy\\TaxStrategyConfInterface -->
<g id="node10" class="node"><title>\\VoidInsight\\Taxtotum\\Libs\\TaxStrategy\\TaxStrategyConfInterface</title>
<polygon fill="none" stroke="black" points="227.5,-291 48.5,-291 48.5,-255 227.5,-255 227.5,-291"/>
<text text-anchor="middle" x="138" y="-270.2" font-family="Courier,monospace" font-size="11.00">TaxStrategyConfInterface</text>
</g>
<!-- \\VoidInsight\\Taxtotum\\Libs\\TaxStrategy\\AbstractTaxStrategy&#45;&gt;\\VoidInsight\\Taxtotum\\Libs\\TaxStrategy\\TaxStrategyConfInterface -->
<g id="edge8" class="edge"><title>\\VoidInsight\\Taxtotum\\Libs\\TaxStrategy\\AbstractTaxStrategy&#45;&gt;\\VoidInsight\\Taxtotum\\Libs\\TaxStrategy\\TaxStrategyConfInterface</title>
<path fill="none" stroke="black" stroke-dasharray="1,5" d="M300.191,-254.321C280.542,-256.598 258.893,-259.107 238.011,-261.527"/>
<polygon fill="none" stroke="black" points="237.364,-258.078 227.834,-262.706 238.17,-265.032 237.364,-258.078"/>
</g>
<!-- \\VoidInsight\\Taxtotum\\Libs\\TaxStrategy\\FixedTaxStrategy -->
<g id="node7" class="node"><title>\\VoidInsight\\Taxtotum\\Libs\\TaxStrategy\\FixedTaxStrategy</title>
<polygon fill="none" stroke="black" points="683.5,-210 558.5,-210 558.5,-174 683.5,-174 683.5,-210"/>
<text text-anchor="middle" x="621" y="-189.2" font-family="Courier,monospace" font-size="11.00">FixedTaxStrategy</text>
</g>
<!-- \\VoidInsight\\Taxtotum\\Libs\\TaxStrategy\\FixedTaxStrategy&#45;&gt;\\VoidInsight\\Taxtotum\\Libs\\TaxStrategy\\AbstractTaxStrategy -->
<g id="edge10" class="edge"><title>\\VoidInsight\\Taxtotum\\Libs\\TaxStrategy\\FixedTaxStrategy&#45;&gt;\\VoidInsight\\Taxtotum\\Libs\\TaxStrategy\\AbstractTaxStrategy</title>
<path fill="none" stroke="black" d="M558.241,-205.557C527.286,-212.352 489.382,-220.672 456.02,-227.996"/>
<polygon fill="none" stroke="black" points="454.842,-224.671 445.825,-230.234 456.343,-231.508 454.842,-224.671"/>
</g>
<!-- \\VoidInsight\\Taxtotum\\Libs\\TaxStrategy\\AbstractDecoratorTaxStrategy&#45;&gt;\\VoidInsight\\Taxtotum\\Libs\\TaxStrategy\\AbstractTaxStrategy -->
<g id="edge12" class="edge"><title>\\VoidInsight\\Taxtotum\\Libs\\TaxStrategy\\AbstractDecoratorTaxStrategy&#45;&gt;\\VoidInsight\\Taxtotum\\Libs\\TaxStrategy\\AbstractTaxStrategy</title>
<path fill="none" stroke="black" d="M517.811,-246C497.127,-246 475.634,-246 455.765,-246"/>
<polygon fill="none" stroke="black" points="455.536,-242.5 445.536,-246 455.535,-249.5 455.536,-242.5"/>
</g>
<!-- \\VoidInsight\\Taxtotum\\Libs\\TaxData\\TaxData -->
<g id="node11" class="node"><title>\\VoidInsight\\Taxtotum\\Libs\\TaxData\\TaxData</title>
<polygon fill="none" stroke="black" points="928,-130 864,-130 864,-94 928,-94 928,-130"/>
<text text-anchor="middle" x="896" y="-109.2" font-family="Courier,monospace" font-size="11.00">TaxData</text>
</g>
<!-- \\VoidInsight\\Taxtotum\\Libs\\TaxData\\TaxDataInterface -->
<g id="node12" class="node"><title>\\VoidInsight\\Taxtotum\\Libs\\TaxData\\TaxDataInterface</title>
<polygon fill="none" stroke="black" points="683.5,-130 558.5,-130 558.5,-94 683.5,-94 683.5,-130"/>
<text text-anchor="middle" x="621" y="-109.2" font-family="Courier,monospace" font-size="11.00">TaxDataInterface</text>
</g>
<!-- \\VoidInsight\\Taxtotum\\Libs\\TaxData\\TaxData&#45;&gt;\\VoidInsight\\Taxtotum\\Libs\\TaxData\\TaxDataInterface -->
<g id="edge9" class="edge"><title>\\VoidInsight\\Taxtotum\\Libs\\TaxData\\TaxData&#45;&gt;\\VoidInsight\\Taxtotum\\Libs\\TaxData\\TaxDataInterface</title>
<path fill="none" stroke="black" stroke-dasharray="1,5" d="M863.949,-112C822.836,-112 749.089,-112 693.784,-112"/>
<polygon fill="none" stroke="black" points="693.684,-108.5 683.684,-112 693.684,-115.5 693.684,-108.5"/>
</g>
<!-- \\VoidInsight\\Taxtotum\\Libs\\AbstractTax -->
<g id="node13" class="node"><title>\\VoidInsight\\Taxtotum\\Libs\\AbstractTax</title>
<polygon fill="none" stroke="black" points="666.5,-76 575.5,-76 575.5,-40 666.5,-40 666.5,-76"/>
<text text-anchor="start" x="587" y="-61.2" font-family="Courier,monospace" font-size="11.00">«abstract»</text>
<text text-anchor="start" x="583.5" y="-49.2" font-family="Courier,monospace" font-size="11.00">AbstractTax</text>
</g>
<!-- \\VoidInsight\\Taxtotum\\Libs\\TaxInterface -->
<g id="node15" class="node"><title>\\VoidInsight\\Taxtotum\\Libs\\TaxInterface</title>
<polygon fill="none" stroke="black" points="422,-76 324,-76 324,-40 422,-40 422,-76"/>
<text text-anchor="middle" x="373" y="-55.2" font-family="Courier,monospace" font-size="11.00">TaxInterface</text>
</g>
<!-- \\VoidInsight\\Taxtotum\\Libs\\AbstractTax&#45;&gt;\\VoidInsight\\Taxtotum\\Libs\\TaxInterface -->
<g id="edge4" class="edge"><title>\\VoidInsight\\Taxtotum\\Libs\\AbstractTax&#45;&gt;\\VoidInsight\\Taxtotum\\Libs\\TaxInterface</title>
<path fill="none" stroke="black" stroke-dasharray="1,5" d="M575.451,-58C535.33,-58 476.097,-58 432.235,-58"/>
<polygon fill="none" stroke="black" points="432,-54.5001 422,-58 432,-61.5001 432,-54.5001"/>
</g>
<!-- \\VoidInsight\\Taxtotum\\Libs\\TaxConfInterface -->
<g id="node16" class="node"><title>\\VoidInsight\\Taxtotum\\Libs\\TaxConfInterface</title>
<polygon fill="none" stroke="black" points="435.5,-130 310.5,-130 310.5,-94 435.5,-94 435.5,-130"/>
<text text-anchor="middle" x="373" y="-109.2" font-family="Courier,monospace" font-size="11.00">TaxConfInterface</text>
</g>
<!-- \\VoidInsight\\Taxtotum\\Libs\\AbstractTax&#45;&gt;\\VoidInsight\\Taxtotum\\Libs\\TaxConfInterface -->
<g id="edge5" class="edge"><title>\\VoidInsight\\Taxtotum\\Libs\\AbstractTax&#45;&gt;\\VoidInsight\\Taxtotum\\Libs\\TaxConfInterface</title>
<path fill="none" stroke="black" stroke-dasharray="1,5" d="M575.451,-67.779C539.304,-75.7138 487.642,-87.0541 445.686,-96.264"/>
<polygon fill="none" stroke="black" points="444.813,-92.8723 435.796,-98.4351 446.314,-99.7095 444.813,-92.8723"/>
</g>
<!-- \\VoidInsight\\Taxtotum\\Libs\\Tax -->
<g id="node14" class="node"><title>\\VoidInsight\\Taxtotum\\Libs\\Tax</title>
<polygon fill="none" stroke="black" points="923,-76 869,-76 869,-40 923,-40 923,-76"/>
<text text-anchor="middle" x="896" y="-55.2" font-family="Courier,monospace" font-size="11.00">Tax</text>
</g>
<!-- \\VoidInsight\\Taxtotum\\Libs\\Tax&#45;&gt;\\VoidInsight\\Taxtotum\\Libs\\AbstractTax -->
<g id="edge11" class="edge"><title>\\VoidInsight\\Taxtotum\\Libs\\Tax&#45;&gt;\\VoidInsight\\Taxtotum\\Libs\\AbstractTax</title>
<path fill="none" stroke="black" d="M868.824,-58C824.885,-58 735.395,-58 677.104,-58"/>
<polygon fill="none" stroke="black" points="676.959,-54.5001 666.959,-58 676.958,-61.5001 676.959,-54.5001"/>
</g>
</g>
</svg>
