<?xml version="1.0" encoding="UTF-8" standalone="no"?>
<!DOCTYPE svg PUBLIC "-//W3C//DTD SVG 1.1//EN"
 "http://www.w3.org/Graphics/SVG/1.1/DTD/svg11.dtd">
<!-- Generated by graphviz version 2.36.0 (20140111.2315)
 -->
<!-- Title: G Pages: 1 -->
<svg width="1066pt" height="842pt"
 viewBox="0.00 0.00 1066.00 842.00" xmlns="http://www.w3.org/2000/svg" xmlns:xlink="http://www.w3.org/1999/xlink">
<g id="graph0" class="graph" transform="scale(1 1) rotate(0) translate(4 838)">
<title>G</title>
<polygon fill="white" stroke="none" points="-4,4 -4,-838 1062,-838 1062,4 -4,4"/>
<g id="clust1" class="cluster"><title>cluster_Global</title>
<path fill="none" stroke="gray" d="M20,-98C20,-98 1038,-98 1038,-98 1044,-98 1050,-104 1050,-110 1050,-110 1050,-814 1050,-814 1050,-820 1044,-826 1038,-826 1038,-826 20,-826 20,-826 14,-826 8,-820 8,-814 8,-814 8,-110 8,-110 8,-104 14,-98 20,-98"/>
<text text-anchor="middle" x="529" y="-813.2" font-family="Times,serif" font-size="11.00" fill="gray">Global</text>
</g>
<g id="clust2" class="cluster"><title>cluster_\VoidInsight</title>
<path fill="none" stroke="gray" d="M28,-106C28,-106 1030,-106 1030,-106 1036,-106 1042,-112 1042,-118 1042,-118 1042,-786 1042,-786 1042,-792 1036,-798 1030,-798 1030,-798 28,-798 28,-798 22,-798 16,-792 16,-786 16,-786 16,-118 16,-118 16,-112 22,-106 28,-106"/>
<text text-anchor="middle" x="529" y="-785.2" font-family="Times,serif" font-size="11.00" fill="gray">VoidInsight</text>
</g>
<g id="clust3" class="cluster"><title>cluster_\VoidInsight\Taxtotum</title>
<path fill="none" stroke="gray" d="M36,-114C36,-114 1022,-114 1022,-114 1028,-114 1034,-120 1034,-126 1034,-126 1034,-758 1034,-758 1034,-764 1028,-770 1022,-770 1022,-770 36,-770 36,-770 30,-770 24,-764 24,-758 24,-758 24,-126 24,-126 24,-120 30,-114 36,-114"/>
<text text-anchor="middle" x="529" y="-757.2" font-family="Times,serif" font-size="11.00" fill="gray">Taxtotum</text>
</g>
<g id="clust4" class="cluster"><title>cluster_\VoidInsight\Taxtotum\Libs</title>
<path fill="none" stroke="gray" d="M44,-122C44,-122 1014,-122 1014,-122 1020,-122 1026,-128 1026,-134 1026,-134 1026,-730 1026,-730 1026,-736 1020,-742 1014,-742 1014,-742 44,-742 44,-742 38,-742 32,-736 32,-730 32,-730 32,-134 32,-134 32,-128 38,-122 44,-122"/>
<text text-anchor="middle" x="529" y="-729.2" font-family="Times,serif" font-size="11.00" fill="gray">Libs</text>
</g>
<g id="clust5" class="cluster"><title>cluster_\VoidInsight\Taxtotum\Libs\TaxStrategy</title>
<path fill="none" stroke="gray" d="M52,-452C52,-452 1006,-452 1006,-452 1012,-452 1018,-458 1018,-464 1018,-464 1018,-702 1018,-702 1018,-708 1012,-714 1006,-714 1006,-714 52,-714 52,-714 46,-714 40,-708 40,-702 40,-702 40,-464 40,-464 40,-458 46,-452 52,-452"/>
<text text-anchor="middle" x="529" y="-701.2" font-family="Times,serif" font-size="11.00" fill="gray">TaxStrategy</text>
</g>
<g id="clust6" class="cluster"><title>cluster_\VoidInsight\Taxtotum\Libs\TaxStrategy\TaxStrategyData</title>
<path fill="none" stroke="gray" d="M549,-614C549,-614 965,-614 965,-614 971,-614 977,-620 977,-626 977,-626 977,-674 977,-674 977,-680 971,-686 965,-686 965,-686 549,-686 549,-686 543,-686 537,-680 537,-674 537,-674 537,-626 537,-626 537,-620 543,-614 549,-614"/>
<text text-anchor="middle" x="757" y="-673.2" font-family="Times,serif" font-size="11.00" fill="gray">TaxStrategyData</text>
</g>
<g id="clust7" class="cluster"><title>cluster_\VoidInsight\Taxtotum\Libs\TaxData</title>
<path fill="none" stroke="gray" d="M576,-372C576,-372 938,-372 938,-372 944,-372 950,-378 950,-384 950,-384 950,-432 950,-432 950,-438 944,-444 938,-444 938,-444 576,-444 576,-444 570,-444 564,-438 564,-432 564,-432 564,-384 564,-384 564,-378 570,-372 576,-372"/>
<text text-anchor="middle" x="757" y="-431.2" font-family="Times,serif" font-size="11.00" fill="gray">TaxData</text>
</g>
<g id="clust8" class="cluster"><title>cluster_\VoidInsight\Taxtotum\Libs\Exception</title>
<path fill="none" stroke="gray" d="M592,-130C592,-130 1000,-130 1000,-130 1006,-130 1012,-136 1012,-142 1012,-142 1012,-306 1012,-306 1012,-312 1006,-318 1000,-318 1000,-318 592,-318 592,-318 586,-318 580,-312 580,-306 580,-306 580,-142 580,-142 580,-136 586,-130 592,-130"/>
<text text-anchor="middle" x="796" y="-305.2" font-family="Times,serif" font-size="11.00" fill="gray">Exception</text>
</g>
<g id="clust9" class="cluster"><title>cluster_\VoidInsight\Taxtotum\Libs\Exception\Logic</title>
<path fill="none" stroke="gray" d="M600,-218C600,-218 989,-218 989,-218 995,-218 1001,-224 1001,-230 1001,-230 1001,-278 1001,-278 1001,-284 995,-290 989,-290 989,-290 600,-290 600,-290 594,-290 588,-284 588,-278 588,-278 588,-230 588,-230 588,-224 594,-218 600,-218"/>
<text text-anchor="middle" x="794.5" y="-277.2" font-family="Times,serif" font-size="11.00" fill="gray">Logic</text>
</g>
<g id="clust10" class="cluster"><title>cluster_\VoidInsight\Taxtotum\Libs\Exception\Runtime</title>
<path fill="none" stroke="gray" d="M600,-138C600,-138 992,-138 992,-138 998,-138 1004,-144 1004,-150 1004,-150 1004,-198 1004,-198 1004,-204 998,-210 992,-210 992,-210 600,-210 600,-210 594,-210 588,-204 588,-198 588,-198 588,-150 588,-150 588,-144 594,-138 600,-138"/>
<text text-anchor="middle" x="796" y="-197.2" font-family="Times,serif" font-size="11.00" fill="gray">Runtime</text>
</g>
<!-- \\VoidInsight\\Taxtotum\\Libs\\TaxStrategy\\TaxStrategyData\\TaxStrategyData -->
<g id="node1" class="node"><title>\\VoidInsight\\Taxtotum\\Libs\\TaxStrategy\\TaxStrategyData\\TaxStrategyData</title>
<polygon fill="none" stroke="black" points="969,-658 851,-658 851,-622 969,-622 969,-658"/>
<text text-anchor="middle" x="910" y="-637.2" font-family="Courier,monospace" font-size="11.00">TaxStrategyData</text>
</g>
<!-- \\VoidInsight\\Taxtotum\\Libs\\TaxStrategy\\TaxStrategyData\\TaxStrategyDataInterface -->
<g id="node2" class="node"><title>\\VoidInsight\\Taxtotum\\Libs\\TaxStrategy\\TaxStrategyData\\TaxStrategyDataInterface</title>
<polygon fill="none" stroke="black" points="724.5,-658 545.5,-658 545.5,-622 724.5,-622 724.5,-658"/>
<text text-anchor="middle" x="635" y="-637.2" font-family="Courier,monospace" font-size="11.00">TaxStrategyDataInterface</text>
</g>
<!-- \\VoidInsight\\Taxtotum\\Libs\\TaxStrategy\\TaxStrategyData\\TaxStrategyData&#45;&gt;\\VoidInsight\\Taxtotum\\Libs\\TaxStrategy\\TaxStrategyData\\TaxStrategyDataInterface -->
<g id="edge6" class="edge"><title>\\VoidInsight\\Taxtotum\\Libs\\TaxStrategy\\TaxStrategyData\\TaxStrategyData&#45;&gt;\\VoidInsight\\Taxtotum\\Libs\\TaxStrategy\\TaxStrategyData\\TaxStrategyDataInterface</title>
<path fill="none" stroke="black" stroke-dasharray="1,5" d="M850.77,-640C817.06,-640 773.732,-640 734.832,-640"/>
<polygon fill="none" stroke="black" points="734.519,-636.5 724.519,-640 734.519,-643.5 734.519,-636.5"/>
</g>
<!-- \\VoidInsight\\Taxtotum\\Libs\\TaxStrategy\\MinimumDecoratorTaxStrategy -->
<g id="node3" class="node"><title>\\VoidInsight\\Taxtotum\\Libs\\TaxStrategy\\MinimumDecoratorTaxStrategy</title>
<polygon fill="none" stroke="black" points="1009.5,-577 810.5,-577 810.5,-541 1009.5,-541 1009.5,-577"/>
<text text-anchor="middle" x="910" y="-556.2" font-family="Courier,monospace" font-size="11.00">MinimumDecoratorTaxStrategy</text>
</g>
<!-- \\VoidInsight\\Taxtotum\\Libs\\TaxStrategy\\AbstractDecoratorTaxStrategy -->
<g id="node8" class="node"><title>\\VoidInsight\\Taxtotum\\Libs\\TaxStrategy\\AbstractDecoratorTaxStrategy</title>
<polygon fill="none" stroke="black" points="738,-550 532,-550 532,-514 738,-514 738,-550"/>
<text text-anchor="start" x="601" y="-535.2" font-family="Courier,monospace" font-size="11.00">«abstract»</text>
<text text-anchor="start" x="540" y="-523.2" font-family="Courier,monospace" font-size="11.00">AbstractDecoratorTaxStrategy</text>
</g>
<!-- \\VoidInsight\\Taxtotum\\Libs\\TaxStrategy\\MinimumDecoratorTaxStrategy&#45;&gt;\\VoidInsight\\Taxtotum\\Libs\\TaxStrategy\\AbstractDecoratorTaxStrategy -->
<g id="edge1" class="edge"><title>\\VoidInsight\\Taxtotum\\Libs\\TaxStrategy\\MinimumDecoratorTaxStrategy&#45;&gt;\\VoidInsight\\Taxtotum\\Libs\\TaxStrategy\\AbstractDecoratorTaxStrategy</title>
<path fill="none" stroke="black" d="M810.441,-549.252C790.228,-547.253 768.809,-545.135 748.159,-543.093"/>
<polygon fill="none" stroke="black" points="748.388,-539.598 738.092,-542.097 747.699,-546.564 748.388,-539.598"/>
</g>
<!-- \\VoidInsight\\Taxtotum\\Libs\\TaxStrategy\\RatioTaxStrategy -->
<g id="node4" class="node"><title>\\VoidInsight\\Taxtotum\\Libs\\TaxStrategy\\RatioTaxStrategy</title>
<polygon fill="none" stroke="black" points="697.5,-604 572.5,-604 572.5,-568 697.5,-568 697.5,-604"/>
<text text-anchor="middle" x="635" y="-583.2" font-family="Courier,monospace" font-size="11.00">RatioTaxStrategy</text>
</g>
<!-- \\VoidInsight\\Taxtotum\\Libs\\TaxStrategy\\AbstractTaxStrategy -->
<g id="node6" class="node"><title>\\VoidInsight\\Taxtotum\\Libs\\TaxStrategy\\AbstractTaxStrategy</title>
<polygon fill="none" stroke="black" points="452.5,-550 307.5,-550 307.5,-514 452.5,-514 452.5,-550"/>
<text text-anchor="start" x="346" y="-535.2" font-family="Courier,monospace" font-size="11.00">«abstract»</text>
<text text-anchor="start" x="315.5" y="-523.2" font-family="Courier,monospace" font-size="11.00">AbstractTaxStrategy</text>
</g>
<!-- \\VoidInsight\\Taxtotum\\Libs\\TaxStrategy\\RatioTaxStrategy&#45;&gt;\\VoidInsight\\Taxtotum\\Libs\\TaxStrategy\\AbstractTaxStrategy -->
<g id="edge2" class="edge"><title>\\VoidInsight\\Taxtotum\\Libs\\TaxStrategy\\RatioTaxStrategy&#45;&gt;\\VoidInsight\\Taxtotum\\Libs\\TaxStrategy\\AbstractTaxStrategy</title>
<path fill="none" stroke="black" d="M572.433,-572.859C539.41,-565.811 498.287,-557.033 462.628,-549.423"/>
<polygon fill="none" stroke="black" points="463.238,-545.974 452.727,-547.309 461.776,-552.82 463.238,-545.974"/>
</g>
<!-- \\VoidInsight\\Taxtotum\\Libs\\TaxStrategy\\MaximumDecoratorTaxStrategy -->
<g id="node5" class="node"><title>\\VoidInsight\\Taxtotum\\Libs\\TaxStrategy\\MaximumDecoratorTaxStrategy</title>
<polygon fill="none" stroke="black" points="1009.5,-523 810.5,-523 810.5,-487 1009.5,-487 1009.5,-523"/>
<text text-anchor="middle" x="910" y="-502.2" font-family="Courier,monospace" font-size="11.00">MaximumDecoratorTaxStrategy</text>
</g>
<!-- \\VoidInsight\\Taxtotum\\Libs\\TaxStrategy\\MaximumDecoratorTaxStrategy&#45;&gt;\\VoidInsight\\Taxtotum\\Libs\\TaxStrategy\\AbstractDecoratorTaxStrategy -->
<g id="edge3" class="edge"><title>\\VoidInsight\\Taxtotum\\Libs\\TaxStrategy\\MaximumDecoratorTaxStrategy&#45;&gt;\\VoidInsight\\Taxtotum\\Libs\\TaxStrategy\\AbstractDecoratorTaxStrategy</title>
<path fill="none" stroke="black" d="M810.441,-514.748C790.228,-516.747 768.809,-518.865 748.159,-520.907"/>
<polygon fill="none" stroke="black" points="747.699,-517.436 738.092,-521.903 748.388,-524.402 747.699,-517.436"/>
</g>
<!-- \\VoidInsight\\Taxtotum\\Libs\\TaxStrategy\\TaxStrategyInterface -->
<g id="node9" class="node"><title>\\VoidInsight\\Taxtotum\\Libs\\TaxStrategy\\TaxStrategyInterface</title>
<polygon fill="none" stroke="black" points="214,-523 62,-523 62,-487 214,-487 214,-523"/>
<text text-anchor="middle" x="138" y="-502.2" font-family="Courier,monospace" font-size="11.00">TaxStrategyInterface</text>
</g>
<!-- \\VoidInsight\\Taxtotum\\Libs\\TaxStrategy\\AbstractTaxStrategy&#45;&gt;\\VoidInsight\\Taxtotum\\Libs\\TaxStrategy\\TaxStrategyInterface -->
<g id="edge7" class="edge"><title>\\VoidInsight\\Taxtotum\\Libs\\TaxStrategy\\AbstractTaxStrategy&#45;&gt;\\VoidInsight\\Taxtotum\\Libs\\TaxStrategy\\TaxStrategyInterface</title>
<path fill="none" stroke="black" stroke-dasharray="1,5" d="M307.317,-523.936C281.229,-521.001 251.484,-517.654 224.33,-514.6"/>
<polygon fill="none" stroke="black" points="224.391,-511.085 214.063,-513.445 223.609,-518.041 224.391,-511.085"/>
</g>
<!-- \\VoidInsight\\Taxtotum\\Libs\\TaxStrategy\\TaxStrategyConfInterface -->
<g id="node10" class="node"><title>\\VoidInsight\\Taxtotum\\Libs\\TaxStrategy\\TaxStrategyConfInterface</title>
<polygon fill="none" stroke="black" points="227.5,-577 48.5,-577 48.5,-541 227.5,-541 227.5,-577"/>
<text text-anchor="middle" x="138" y="-556.2" font-family="Courier,monospace" font-size="11.00">TaxStrategyConfInterface</text>
</g>
<!-- \\VoidInsight\\Taxtotum\\Libs\\TaxStrategy\\AbstractTaxStrategy&#45;&gt;\\VoidInsight\\Taxtotum\\Libs\\TaxStrategy\\TaxStrategyConfInterface -->
<g id="edge8" class="edge"><title>\\VoidInsight\\Taxtotum\\Libs\\TaxStrategy\\AbstractTaxStrategy&#45;&gt;\\VoidInsight\\Taxtotum\\Libs\\TaxStrategy\\TaxStrategyConfInterface</title>
<path fill="none" stroke="black" stroke-dasharray="1,5" d="M307.317,-540.064C285.539,-542.514 261.213,-545.251 237.972,-547.866"/>
<polygon fill="none" stroke="black" points="237.284,-544.421 227.738,-549.017 238.066,-551.377 237.284,-544.421"/>
</g>
<!-- \\VoidInsight\\Taxtotum\\Libs\\TaxStrategy\\FixedTaxStrategy -->
<g id="node7" class="node"><title>\\VoidInsight\\Taxtotum\\Libs\\TaxStrategy\\FixedTaxStrategy</title>
<polygon fill="none" stroke="black" points="697.5,-496 572.5,-496 572.5,-460 697.5,-460 697.5,-496"/>
<text text-anchor="middle" x="635" y="-475.2" font-family="Courier,monospace" font-size="11.00">FixedTaxStrategy</text>
</g>
<!-- \\VoidInsight\\Taxtotum\\Libs\\TaxStrategy\\FixedTaxStrategy&#45;&gt;\\VoidInsight\\Taxtotum\\Libs\\TaxStrategy\\AbstractTaxStrategy -->
<g id="edge10" class="edge"><title>\\VoidInsight\\Taxtotum\\Libs\\TaxStrategy\\FixedTaxStrategy&#45;&gt;\\VoidInsight\\Taxtotum\\Libs\\TaxStrategy\\AbstractTaxStrategy</title>
<path fill="none" stroke="black" d="M572.433,-491.141C539.41,-498.189 498.287,-506.967 462.628,-514.577"/>
<polygon fill="none" stroke="black" points="461.776,-511.18 452.727,-516.691 463.238,-518.026 461.776,-511.18"/>
</g>
<!-- \\VoidInsight\\Taxtotum\\Libs\\TaxStrategy\\AbstractDecoratorTaxStrategy&#45;&gt;\\VoidInsight\\Taxtotum\\Libs\\TaxStrategy\\AbstractTaxStrategy -->
<g id="edge12" class="edge"><title>\\VoidInsight\\Taxtotum\\Libs\\TaxStrategy\\AbstractDecoratorTaxStrategy&#45;&gt;\\VoidInsight\\Taxtotum\\Libs\\TaxStrategy\\AbstractTaxStrategy</title>
<path fill="none" stroke="black" d="M531.824,-532C508.975,-532 485.025,-532 463.11,-532"/>
<polygon fill="none" stroke="black" points="462.864,-528.5 452.864,-532 462.864,-535.5 462.864,-528.5"/>
</g>
<!-- \\VoidInsight\\Taxtotum\\Libs\\TaxData\\TaxData -->
<g id="node11" class="node"><title>\\VoidInsight\\Taxtotum\\Libs\\TaxData\\TaxData</title>
<polygon fill="none" stroke="black" points="942,-416 878,-416 878,-380 942,-380 942,-416"/>
<text text-anchor="middle" x="910" y="-395.2" font-family="Courier,monospace" font-size="11.00">TaxData</text>
</g>
<!-- \\VoidInsight\\Taxtotum\\Libs\\TaxData\\TaxDataInterface -->
<g id="node12" class="node"><title>\\VoidInsight\\Taxtotum\\Libs\\TaxData\\TaxDataInterface</title>
<polygon fill="none" stroke="black" points="697.5,-416 572.5,-416 572.5,-380 697.5,-380 697.5,-416"/>
<text text-anchor="middle" x="635" y="-395.2" font-family="Courier,monospace" font-size="11.00">TaxDataInterface</text>
</g>
<!-- \\VoidInsight\\Taxtotum\\Libs\\TaxData\\TaxData&#45;&gt;\\VoidInsight\\Taxtotum\\Libs\\TaxData\\TaxDataInterface -->
<g id="edge9" class="edge"><title>\\VoidInsight\\Taxtotum\\Libs\\TaxData\\TaxData&#45;&gt;\\VoidInsight\\Taxtotum\\Libs\\TaxData\\TaxDataInterface</title>
<path fill="none" stroke="black" stroke-dasharray="1,5" d="M877.949,-398C836.836,-398 763.089,-398 707.784,-398"/>
<polygon fill="none" stroke="black" points="707.684,-394.5 697.684,-398 707.684,-401.5 707.684,-394.5"/>
</g>
<!-- \\VoidInsight\\Taxtotum\\Libs\\Exception\\Logic\\Exception -->
<g id="node13" class="node"><title>\\VoidInsight\\Taxtotum\\Libs\\Exception\\Logic\\Exception</title>
<polygon fill="none" stroke="black" points="673.5,-262 596.5,-262 596.5,-226 673.5,-226 673.5,-262"/>
<text text-anchor="middle" x="635" y="-241.2" font-family="Courier,monospace" font-size="11.00">Exception</text>
</g>
<!-- \\LogicException -->
<g id="node21" class="node"><title>\\LogicException</title>
<ellipse fill="none" stroke="black" cx="380" cy="-72" rx="69.5877" ry="18"/>
<text text-anchor="middle" x="380" y="-68.3" font-family="Times,serif" font-size="14.00" fill="gray">\LogicException</text>
</g>
<!-- \\VoidInsight\\Taxtotum\\Libs\\Exception\\Logic\\Exception&#45;&gt;\\LogicException -->
<g id="edge13" class="edge"><title>\\VoidInsight\\Taxtotum\\Libs\\Exception\\Logic\\Exception&#45;&gt;\\LogicException</title>
<path fill="none" stroke="black" d="M596.098,-238.807C575.719,-234.616 550.956,-227.155 532,-214 488.184,-183.593 499.839,-153.459 460,-118 449.125,-108.32 435.899,-99.6713 423.405,-92.557"/>
<polygon fill="none" stroke="black" points="424.93,-89.4015 414.48,-87.6552 421.56,-95.537 424.93,-89.4015"/>
</g>
<!-- \\VoidInsight\\Taxtotum\\Libs\\Exception\\Logic\\ItemNotSettedException -->
<g id="node14" class="node"><title>\\VoidInsight\\Taxtotum\\Libs\\Exception\\Logic\\ItemNotSettedException</title>
<polygon fill="none" stroke="black" points="992.5,-262 827.5,-262 827.5,-226 992.5,-226 992.5,-262"/>
<text text-anchor="middle" x="910" y="-241.2" font-family="Courier,monospace" font-size="11.00">ItemNotSettedException</text>
</g>
<!-- \\VoidInsight\\Taxtotum\\Libs\\Exception\\Logic\\ItemNotSettedException&#45;&gt;\\VoidInsight\\Taxtotum\\Libs\\Exception\\Logic\\Exception -->
<g id="edge14" class="edge"><title>\\VoidInsight\\Taxtotum\\Libs\\Exception\\Logic\\ItemNotSettedException&#45;&gt;\\VoidInsight\\Taxtotum\\Libs\\Exception\\Logic\\Exception</title>
<path fill="none" stroke="black" d="M827.461,-244C780.587,-244 723.332,-244 683.709,-244"/>
<polygon fill="none" stroke="black" points="683.529,-240.5 673.529,-244 683.529,-247.5 683.529,-240.5"/>
</g>
<!-- \\VoidInsight\\Taxtotum\\Libs\\Exception\\Runtime\\Exception -->
<g id="node15" class="node"><title>\\VoidInsight\\Taxtotum\\Libs\\Exception\\Runtime\\Exception</title>
<polygon fill="none" stroke="black" points="673.5,-182 596.5,-182 596.5,-146 673.5,-146 673.5,-182"/>
<text text-anchor="middle" x="635" y="-161.2" font-family="Courier,monospace" font-size="11.00">Exception</text>
</g>
<!-- \\RuntimeException -->
<g id="node22" class="node"><title>\\RuntimeException</title>
<ellipse fill="none" stroke="black" cx="380" cy="-18" rx="79.0865" ry="18"/>
<text text-anchor="middle" x="380" y="-14.3" font-family="Times,serif" font-size="14.00" fill="gray">\RuntimeException</text>
</g>
<!-- \\VoidInsight\\Taxtotum\\Libs\\Exception\\Runtime\\Exception&#45;&gt;\\RuntimeException -->
<g id="edge15" class="edge"><title>\\VoidInsight\\Taxtotum\\Libs\\Exception\\Runtime\\Exception&#45;&gt;\\RuntimeException</title>
<path fill="none" stroke="black" d="M611.872,-145.932C579.956,-120.577 518.402,-74.2696 460,-45 453.408,-41.6961 446.316,-38.639 439.183,-35.8612"/>
<polygon fill="none" stroke="black" points="440.066,-32.4557 429.474,-32.2493 437.626,-39.0164 440.066,-32.4557"/>
</g>
<!-- \\VoidInsight\\Taxtotum\\Libs\\Exception\\Runtime\\ValueNotSettedException -->
<g id="node16" class="node"><title>\\VoidInsight\\Taxtotum\\Libs\\Exception\\Runtime\\ValueNotSettedException</title>
<polygon fill="none" stroke="black" points="996,-182 824,-182 824,-146 996,-146 996,-182"/>
<text text-anchor="middle" x="910" y="-161.2" font-family="Courier,monospace" font-size="11.00">ValueNotSettedException</text>
</g>
<!-- \\VoidInsight\\Taxtotum\\Libs\\Exception\\Runtime\\ValueNotSettedException&#45;&gt;\\VoidInsight\\Taxtotum\\Libs\\Exception\\Runtime\\Exception -->
<g id="edge16" class="edge"><title>\\VoidInsight\\Taxtotum\\Libs\\Exception\\Runtime\\ValueNotSettedException&#45;&gt;\\VoidInsight\\Taxtotum\\Libs\\Exception\\Runtime\\Exception</title>
<path fill="none" stroke="black" d="M823.744,-164C777.697,-164 722.549,-164 683.98,-164"/>
<polygon fill="none" stroke="black" points="683.562,-160.5 673.562,-164 683.562,-167.5 683.562,-160.5"/>
</g>
<!-- \\VoidInsight\\Taxtotum\\Libs\\AbstractTax -->
<g id="node17" class="node"><title>\\VoidInsight\\Taxtotum\\Libs\\AbstractTax</title>
<polygon fill="none" stroke="black" points="680.5,-362 589.5,-362 589.5,-326 680.5,-326 680.5,-362"/>
<text text-anchor="start" x="601" y="-347.2" font-family="Courier,monospace" font-size="11.00">«abstract»</text>
<text text-anchor="start" x="597.5" y="-335.2" font-family="Courier,monospace" font-size="11.00">AbstractTax</text>
</g>
<!-- \\VoidInsight\\Taxtotum\\Libs\\TaxInterface -->
<g id="node19" class="node"><title>\\VoidInsight\\Taxtotum\\Libs\\TaxInterface</title>
<polygon fill="none" stroke="black" points="429,-389 331,-389 331,-353 429,-353 429,-389"/>
<text text-anchor="middle" x="380" y="-368.2" font-family="Courier,monospace" font-size="11.00">TaxInterface</text>
</g>
<!-- \\VoidInsight\\Taxtotum\\Libs\\AbstractTax&#45;&gt;\\VoidInsight\\Taxtotum\\Libs\\TaxInterface -->
<g id="edge4" class="edge"><title>\\VoidInsight\\Taxtotum\\Libs\\AbstractTax&#45;&gt;\\VoidInsight\\Taxtotum\\Libs\\TaxInterface</title>
<path fill="none" stroke="black" stroke-dasharray="1,5" d="M589.351,-348.765C547.544,-353.227 484.834,-359.919 439.137,-364.796"/>
<polygon fill="none" stroke="black" points="438.649,-361.328 429.077,-365.869 439.392,-368.288 438.649,-361.328"/>
</g>
<!-- \\VoidInsight\\Taxtotum\\Libs\\TaxConfInterface -->
<g id="node20" class="node"><title>\\VoidInsight\\Taxtotum\\Libs\\TaxConfInterface</title>
<polygon fill="none" stroke="black" points="442.5,-335 317.5,-335 317.5,-299 442.5,-299 442.5,-335"/>
<text text-anchor="middle" x="380" y="-314.2" font-family="Courier,monospace" font-size="11.00">TaxConfInterface</text>
</g>
<!-- \\VoidInsight\\Taxtotum\\Libs\\AbstractTax&#45;&gt;\\VoidInsight\\Taxtotum\\Libs\\TaxConfInterface -->
<g id="edge5" class="edge"><title>\\VoidInsight\\Taxtotum\\Libs\\AbstractTax&#45;&gt;\\VoidInsight\\Taxtotum\\Libs\\TaxConfInterface</title>
<path fill="none" stroke="black" stroke-dasharray="1,5" d="M589.351,-339.235C551.58,-335.204 496.747,-329.352 452.813,-324.664"/>
<polygon fill="none" stroke="black" points="453.073,-321.172 442.758,-323.591 452.33,-328.132 453.073,-321.172"/>
</g>
<!-- \\VoidInsight\\Taxtotum\\Libs\\Tax -->
<g id="node18" class="node"><title>\\VoidInsight\\Taxtotum\\Libs\\Tax</title>
<polygon fill="none" stroke="black" points="937,-362 883,-362 883,-326 937,-326 937,-362"/>
<text text-anchor="middle" x="910" y="-341.2" font-family="Courier,monospace" font-size="11.00">Tax</text>
</g>
<!-- \\VoidInsight\\Taxtotum\\Libs\\Tax&#45;&gt;\\VoidInsight\\Taxtotum\\Libs\\AbstractTax -->
<g id="edge11" class="edge"><title>\\VoidInsight\\Taxtotum\\Libs\\Tax&#45;&gt;\\VoidInsight\\Taxtotum\\Libs\\AbstractTax</title>
<path fill="none" stroke="black" d="M882.824,-344C838.885,-344 749.395,-344 691.104,-344"/>
<polygon fill="none" stroke="black" points="690.959,-340.5 680.959,-344 690.958,-347.5 690.959,-340.5"/>
</g>
</g>
</svg>
